<svg width="306" height="310" viewBox="0 0 306 310" fill="none" xmlns="http://www.w3.org/2000/svg">
<rect width="306" height="310" rx="8" fill="white"/>
<g clip-path="url(#clip0_244_315)">
<path d="M34.1831 28.175L30.3581 32L34.1831 35.825L32.9998 37L27.9998 32L32.9998 27L34.1831 28.175Z" fill="#B5BEC6"/>
<path d="M106.801 26.726C106.362 26.082 105.723 25.76 104.883 25.76C104.621 25.76 104.365 25.7973 104.113 25.872C103.861 25.9373 103.632 26.0447 103.427 26.194C103.231 26.334 103.072 26.5207 102.951 26.754C102.829 26.978 102.769 27.244 102.769 27.552C102.769 28 102.895 28.35 103.147 28.602C103.399 28.8447 103.711 29.0453 104.085 29.204C104.458 29.3627 104.864 29.5073 105.303 29.638C105.751 29.7593 106.161 29.9273 106.535 30.142C106.908 30.3473 107.221 30.6227 107.473 30.968C107.725 31.3133 107.851 31.7847 107.851 32.382C107.851 32.83 107.753 33.236 107.557 33.6C107.37 33.9547 107.118 34.2533 106.801 34.496C106.493 34.7387 106.143 34.9253 105.751 35.056C105.368 35.1867 104.981 35.252 104.589 35.252C103.982 35.252 103.403 35.14 102.853 34.916C102.311 34.6827 101.849 34.3047 101.467 33.782L102.377 33.124C102.591 33.488 102.89 33.782 103.273 34.006C103.655 34.2207 104.108 34.328 104.631 34.328C104.883 34.328 105.135 34.2907 105.387 34.216C105.639 34.132 105.863 34.0153 106.059 33.866C106.264 33.7073 106.432 33.516 106.563 33.292C106.693 33.068 106.759 32.8113 106.759 32.522C106.759 32.1767 106.684 31.892 106.535 31.668C106.395 31.4347 106.203 31.2433 105.961 31.094C105.727 30.9353 105.457 30.8047 105.149 30.702C104.85 30.5993 104.537 30.4967 104.211 30.394C103.893 30.2913 103.581 30.1747 103.273 30.044C102.974 29.9133 102.703 29.75 102.461 29.554C102.227 29.3487 102.036 29.0967 101.887 28.798C101.747 28.49 101.677 28.1073 101.677 27.65C101.677 27.174 101.765 26.7587 101.943 26.404C102.129 26.0493 102.372 25.7553 102.671 25.522C102.979 25.2887 103.324 25.116 103.707 25.004C104.089 24.892 104.481 24.836 104.883 24.836C105.443 24.836 105.951 24.9247 106.409 25.102C106.866 25.2793 107.291 25.592 107.683 26.04L106.801 26.726ZM114.65 31.22C114.65 30.5947 114.463 30.0907 114.09 29.708C113.717 29.316 113.194 29.12 112.522 29.12C112.223 29.12 111.934 29.1807 111.654 29.302C111.374 29.414 111.127 29.568 110.912 29.764C110.707 29.96 110.539 30.184 110.408 30.436C110.287 30.688 110.226 30.9493 110.226 31.22H114.65ZM110.198 31.976C110.226 32.3027 110.305 32.6107 110.436 32.9C110.567 33.1893 110.739 33.4413 110.954 33.656C111.169 33.8613 111.416 34.0247 111.696 34.146C111.976 34.2673 112.279 34.328 112.606 34.328C113.101 34.328 113.525 34.216 113.88 33.992C114.244 33.7587 114.519 33.4927 114.706 33.194L115.42 33.782C115.028 34.2767 114.594 34.6313 114.118 34.846C113.651 35.0607 113.147 35.168 112.606 35.168C112.121 35.168 111.668 35.084 111.248 34.916C110.837 34.7387 110.483 34.496 110.184 34.188C109.885 33.88 109.647 33.516 109.47 33.096C109.302 32.676 109.218 32.2187 109.218 31.724C109.218 31.2293 109.302 30.772 109.47 30.352C109.638 29.932 109.871 29.568 110.17 29.26C110.469 28.952 110.819 28.714 111.22 28.546C111.621 28.3687 112.055 28.28 112.522 28.28C113.017 28.28 113.46 28.3687 113.852 28.546C114.244 28.7233 114.571 28.9613 114.832 29.26C115.103 29.5493 115.308 29.8947 115.448 30.296C115.588 30.688 115.658 31.108 115.658 31.556V31.976H110.198ZM123.311 31.724C123.311 31.36 123.251 31.0193 123.129 30.702C123.017 30.3847 122.854 30.1093 122.639 29.876C122.425 29.6427 122.163 29.4607 121.855 29.33C121.557 29.19 121.216 29.12 120.833 29.12C120.451 29.12 120.101 29.19 119.783 29.33C119.466 29.4607 119.191 29.6427 118.957 29.876C118.724 30.1093 118.542 30.3847 118.411 30.702C118.281 31.0193 118.215 31.36 118.215 31.724C118.215 32.088 118.281 32.4287 118.411 32.746C118.542 33.0633 118.724 33.3387 118.957 33.572C119.191 33.8053 119.466 33.992 119.783 34.132C120.101 34.2627 120.451 34.328 120.833 34.328C121.216 34.328 121.557 34.2627 121.855 34.132C122.163 33.992 122.425 33.8053 122.639 33.572C122.854 33.3387 123.017 33.0633 123.129 32.746C123.251 32.4287 123.311 32.088 123.311 31.724ZM117.333 28.448H118.257V29.54H118.285C118.435 29.316 118.612 29.1247 118.817 28.966C119.023 28.8073 119.237 28.6767 119.461 28.574C119.685 28.4713 119.914 28.3967 120.147 28.35C120.39 28.3033 120.619 28.28 120.833 28.28C121.347 28.28 121.813 28.3687 122.233 28.546C122.663 28.714 123.031 28.952 123.339 29.26C123.647 29.568 123.885 29.932 124.053 30.352C124.231 30.772 124.319 31.2293 124.319 31.724C124.319 32.2187 124.231 32.676 124.053 33.096C123.885 33.516 123.647 33.88 123.339 34.188C123.031 34.496 122.663 34.7387 122.233 34.916C121.813 35.084 121.347 35.168 120.833 35.168C120.619 35.168 120.39 35.1447 120.147 35.098C119.914 35.0513 119.685 34.9767 119.461 34.874C119.237 34.7713 119.023 34.6407 118.817 34.482C118.612 34.3233 118.435 34.132 118.285 33.908H118.257V39.032H117.333V28.448ZM129.28 29.288H127.39V33.152C127.39 33.3947 127.413 33.5953 127.46 33.754C127.506 33.9033 127.572 34.02 127.656 34.104C127.74 34.188 127.838 34.2487 127.95 34.286C128.071 34.314 128.202 34.328 128.342 34.328C128.5 34.328 128.664 34.3047 128.832 34.258C129 34.2113 129.154 34.1507 129.294 34.076L129.336 34.93C128.99 35.0887 128.575 35.168 128.09 35.168C127.912 35.168 127.726 35.1447 127.53 35.098C127.343 35.0513 127.17 34.9627 127.012 34.832C126.853 34.7013 126.722 34.524 126.62 34.3C126.517 34.076 126.466 33.782 126.466 33.418V29.288H125.08V28.448H126.466V26.6H127.39V28.448H129.28V29.288ZM135.636 31.22C135.636 30.5947 135.45 30.0907 135.076 29.708C134.703 29.316 134.18 29.12 133.508 29.12C133.21 29.12 132.92 29.1807 132.64 29.302C132.36 29.414 132.113 29.568 131.898 29.764C131.693 29.96 131.525 30.184 131.394 30.436C131.273 30.688 131.212 30.9493 131.212 31.22H135.636ZM131.184 31.976C131.212 32.3027 131.292 32.6107 131.422 32.9C131.553 33.1893 131.726 33.4413 131.94 33.656C132.155 33.8613 132.402 34.0247 132.682 34.146C132.962 34.2673 133.266 34.328 133.592 34.328C134.087 34.328 134.512 34.216 134.866 33.992C135.23 33.7587 135.506 33.4927 135.692 33.194L136.406 33.782C136.014 34.2767 135.58 34.6313 135.104 34.846C134.638 35.0607 134.134 35.168 133.592 35.168C133.107 35.168 132.654 35.084 132.234 34.916C131.824 34.7387 131.469 34.496 131.17 34.188C130.872 33.88 130.634 33.516 130.456 33.096C130.288 32.676 130.204 32.2187 130.204 31.724C130.204 31.2293 130.288 30.772 130.456 30.352C130.624 29.932 130.858 29.568 131.156 29.26C131.455 28.952 131.805 28.714 132.206 28.546C132.608 28.3687 133.042 28.28 133.508 28.28C134.003 28.28 134.446 28.3687 134.838 28.546C135.23 28.7233 135.557 28.9613 135.818 29.26C136.089 29.5493 136.294 29.8947 136.434 30.296C136.574 30.688 136.644 31.108 136.644 31.556V31.976H131.184ZM138.32 29.904C138.32 29.6613 138.31 29.4187 138.292 29.176C138.282 28.9333 138.268 28.6907 138.25 28.448H139.244V29.442H139.272C139.496 29.0593 139.804 28.77 140.196 28.574C140.597 28.378 140.994 28.28 141.386 28.28C141.563 28.28 141.75 28.2987 141.946 28.336C142.151 28.3733 142.347 28.4433 142.534 28.546C142.72 28.6393 142.893 28.7747 143.052 28.952C143.22 29.1293 143.36 29.358 143.472 29.638C143.658 29.218 143.952 28.8867 144.354 28.644C144.764 28.4013 145.189 28.28 145.628 28.28C146.468 28.28 147.088 28.504 147.49 28.952C147.891 29.3907 148.092 30.0207 148.092 30.842V35H147.168V31.178C147.168 30.5153 147.051 30.0067 146.818 29.652C146.584 29.2973 146.15 29.12 145.516 29.12C145.17 29.12 144.881 29.19 144.648 29.33C144.414 29.4607 144.223 29.638 144.074 29.862C143.934 30.086 143.831 30.3427 143.766 30.632C143.7 30.912 143.668 31.206 143.668 31.514V35H142.744V31.178C142.744 30.5153 142.627 30.0067 142.394 29.652C142.16 29.2973 141.726 29.12 141.092 29.12C141.036 29.12 140.905 29.1387 140.7 29.176C140.504 29.2133 140.298 29.316 140.084 29.484C139.869 29.652 139.673 29.904 139.496 30.24C139.328 30.576 139.244 31.0427 139.244 31.64V35H138.32V29.904ZM156.219 31.724C156.219 31.36 156.159 31.0193 156.037 30.702C155.925 30.3847 155.762 30.1093 155.547 29.876C155.333 29.6427 155.071 29.4607 154.763 29.33C154.465 29.19 154.124 29.12 153.741 29.12C153.359 29.12 153.009 29.19 152.691 29.33C152.374 29.4607 152.099 29.6427 151.865 29.876C151.632 30.1093 151.45 30.3847 151.319 30.702C151.189 31.0193 151.123 31.36 151.123 31.724C151.123 32.088 151.189 32.4287 151.319 32.746C151.45 33.0633 151.632 33.3387 151.865 33.572C152.099 33.8053 152.374 33.992 152.691 34.132C153.009 34.2627 153.359 34.328 153.741 34.328C154.124 34.328 154.465 34.2627 154.763 34.132C155.071 33.992 155.333 33.8053 155.547 33.572C155.762 33.3387 155.925 33.0633 156.037 32.746C156.159 32.4287 156.219 32.088 156.219 31.724ZM150.241 24.416H151.165V29.54H151.193C151.343 29.316 151.52 29.1247 151.725 28.966C151.931 28.8073 152.145 28.6767 152.369 28.574C152.593 28.4713 152.822 28.3967 153.055 28.35C153.298 28.3033 153.527 28.28 153.741 28.28C154.255 28.28 154.721 28.3687 155.141 28.546C155.571 28.714 155.939 28.952 156.247 29.26C156.555 29.568 156.793 29.932 156.961 30.352C157.139 30.772 157.227 31.2293 157.227 31.724C157.227 32.2187 157.139 32.676 156.961 33.096C156.793 33.516 156.555 33.88 156.247 34.188C155.939 34.496 155.571 34.7387 155.141 34.916C154.721 35.084 154.255 35.168 153.741 35.168C153.527 35.168 153.298 35.1447 153.055 35.098C152.822 35.0513 152.593 34.9767 152.369 34.874C152.145 34.7713 151.931 34.6407 151.725 34.482C151.52 34.3233 151.343 34.132 151.193 33.908H151.165V35H150.241V24.416ZM163.896 31.22C163.896 30.5947 163.709 30.0907 163.336 29.708C162.963 29.316 162.44 29.12 161.768 29.12C161.469 29.12 161.18 29.1807 160.9 29.302C160.62 29.414 160.373 29.568 160.158 29.764C159.953 29.96 159.785 30.184 159.654 30.436C159.533 30.688 159.472 30.9493 159.472 31.22H163.896ZM159.444 31.976C159.472 32.3027 159.551 32.6107 159.682 32.9C159.813 33.1893 159.985 33.4413 160.2 33.656C160.415 33.8613 160.662 34.0247 160.942 34.146C161.222 34.2673 161.525 34.328 161.852 34.328C162.347 34.328 162.771 34.216 163.126 33.992C163.49 33.7587 163.765 33.4927 163.952 33.194L164.666 33.782C164.274 34.2767 163.84 34.6313 163.364 34.846C162.897 35.0607 162.393 35.168 161.852 35.168C161.367 35.168 160.914 35.084 160.494 34.916C160.083 34.7387 159.729 34.496 159.43 34.188C159.131 33.88 158.893 33.516 158.716 33.096C158.548 32.676 158.464 32.2187 158.464 31.724C158.464 31.2293 158.548 30.772 158.716 30.352C158.884 29.932 159.117 29.568 159.416 29.26C159.715 28.952 160.065 28.714 160.466 28.546C160.867 28.3687 161.301 28.28 161.768 28.28C162.263 28.28 162.706 28.3687 163.098 28.546C163.49 28.7233 163.817 28.9613 164.078 29.26C164.349 29.5493 164.554 29.8947 164.694 30.296C164.834 30.688 164.904 31.108 164.904 31.556V31.976H159.444ZM166.677 30.492C166.677 30.2027 166.668 29.9087 166.649 29.61C166.64 29.3113 166.631 28.924 166.621 28.448H167.531V29.666H167.559C167.625 29.4887 167.718 29.3207 167.839 29.162C167.961 28.994 168.105 28.8447 168.273 28.714C168.451 28.5833 168.651 28.4807 168.875 28.406C169.109 28.322 169.37 28.28 169.659 28.28C169.921 28.28 170.149 28.308 170.345 28.364L170.163 29.274C170.042 29.2273 169.865 29.204 169.631 29.204C169.277 29.204 168.973 29.274 168.721 29.414C168.469 29.5447 168.259 29.7173 168.091 29.932C167.923 30.1373 167.797 30.3613 167.713 30.604C167.639 30.8467 167.601 31.08 167.601 31.304V35H166.677V30.492ZM181.088 35H174.788V33.838L178.736 29.82C178.886 29.6707 179.035 29.512 179.184 29.344C179.334 29.176 179.469 28.9987 179.59 28.812C179.712 28.6253 179.81 28.4293 179.884 28.224C179.959 28.0187 179.996 27.804 179.996 27.58C179.996 27.3093 179.945 27.0667 179.842 26.852C179.749 26.6373 179.614 26.4553 179.436 26.306C179.259 26.1567 179.054 26.0447 178.82 25.97C178.587 25.886 178.34 25.844 178.078 25.844C177.574 25.844 177.145 25.984 176.79 26.264C176.436 26.544 176.207 26.922 176.104 27.398L175.04 27.286C175.18 26.5487 175.516 25.97 176.048 25.55C176.59 25.13 177.243 24.92 178.008 24.92C178.41 24.92 178.788 24.976 179.142 25.088C179.506 25.1907 179.824 25.3493 180.094 25.564C180.374 25.7787 180.594 26.0493 180.752 26.376C180.92 26.6933 181.004 27.0667 181.004 27.496C181.004 27.8787 180.944 28.2287 180.822 28.546C180.71 28.8633 180.561 29.162 180.374 29.442C180.188 29.722 179.973 29.988 179.73 30.24C179.497 30.492 179.254 30.7393 179.002 30.982L175.88 34.076H181.088V35ZM185.788 25.844C185.246 25.844 184.817 25.9887 184.5 26.278C184.192 26.5673 183.958 26.9267 183.8 27.356C183.641 27.7853 183.538 28.2427 183.492 28.728C183.454 29.2133 183.436 29.652 183.436 30.044C183.436 30.436 183.454 30.8747 183.492 31.36C183.538 31.8453 183.641 32.3027 183.8 32.732C183.958 33.1613 184.192 33.5207 184.5 33.81C184.817 34.0993 185.246 34.244 185.788 34.244C186.329 34.244 186.754 34.0993 187.062 33.81C187.379 33.5207 187.617 33.1613 187.776 32.732C187.934 32.3027 188.032 31.8453 188.07 31.36C188.116 30.8747 188.14 30.436 188.14 30.044C188.14 29.652 188.116 29.2133 188.07 28.728C188.032 28.2427 187.934 27.7853 187.776 27.356C187.617 26.9267 187.379 26.5673 187.062 26.278C186.754 25.9887 186.329 25.844 185.788 25.844ZM185.788 24.92C186.497 24.92 187.071 25.0833 187.51 25.41C187.948 25.7367 188.289 26.152 188.532 26.656C188.774 27.16 188.938 27.7153 189.022 28.322C189.106 28.9193 189.148 29.4933 189.148 30.044C189.148 30.5947 189.106 31.1733 189.022 31.78C188.938 32.3773 188.774 32.928 188.532 33.432C188.289 33.936 187.948 34.3513 187.51 34.678C187.071 35.0047 186.497 35.168 185.788 35.168C185.078 35.168 184.504 35.0047 184.066 34.678C183.627 34.3513 183.286 33.936 183.044 33.432C182.801 32.928 182.638 32.3773 182.554 31.78C182.47 31.1733 182.428 30.5947 182.428 30.044C182.428 29.4933 182.47 28.9193 182.554 28.322C182.638 27.7153 182.801 27.16 183.044 26.656C183.286 26.152 183.627 25.7367 184.066 25.41C184.504 25.0833 185.078 24.92 185.788 24.92ZM196.647 35H190.347V33.838L194.295 29.82C194.444 29.6707 194.593 29.512 194.743 29.344C194.892 29.176 195.027 28.9987 195.149 28.812C195.27 28.6253 195.368 28.4293 195.443 28.224C195.517 28.0187 195.555 27.804 195.555 27.58C195.555 27.3093 195.503 27.0667 195.401 26.852C195.307 26.6373 195.172 26.4553 194.995 26.306C194.817 26.1567 194.612 26.0447 194.379 25.97C194.145 25.886 193.898 25.844 193.637 25.844C193.133 25.844 192.703 25.984 192.349 26.264C191.994 26.544 191.765 26.922 191.663 27.398L190.599 27.286C190.739 26.5487 191.075 25.97 191.607 25.55C192.148 25.13 192.801 24.92 193.567 24.92C193.968 24.92 194.346 24.976 194.701 25.088C195.065 25.1907 195.382 25.3493 195.653 25.564C195.933 25.7787 196.152 26.0493 196.311 26.376C196.479 26.6933 196.563 27.0667 196.563 27.496C196.563 27.8787 196.502 28.2287 196.381 28.546C196.269 28.8633 196.119 29.162 195.933 29.442C195.746 29.722 195.531 29.988 195.289 30.24C195.055 30.492 194.813 30.7393 194.561 30.982L191.439 34.076H196.647V35ZM203.964 26.012H199.904L199.848 28.994C200.063 28.91 200.282 28.8493 200.506 28.812C200.73 28.7747 200.954 28.756 201.178 28.756C201.645 28.756 202.069 28.8353 202.452 28.994C202.835 29.1527 203.161 29.3767 203.432 29.666C203.712 29.946 203.927 30.282 204.076 30.674C204.235 31.0567 204.314 31.4767 204.314 31.934C204.314 32.41 204.23 32.8487 204.062 33.25C203.894 33.642 203.661 33.9827 203.362 34.272C203.063 34.552 202.709 34.7713 202.298 34.93C201.897 35.0887 201.458 35.168 200.982 35.168C200.357 35.168 199.792 35.0187 199.288 34.72C198.784 34.4213 198.397 33.9827 198.126 33.404L199.12 32.97C199.307 33.362 199.568 33.6747 199.904 33.908C200.24 34.132 200.627 34.244 201.066 34.244C201.383 34.244 201.677 34.188 201.948 34.076C202.219 33.9547 202.452 33.796 202.648 33.6C202.853 33.404 203.012 33.1707 203.124 32.9C203.245 32.6293 203.306 32.34 203.306 32.032C203.306 31.6867 203.245 31.3693 203.124 31.08C203.003 30.7907 202.835 30.5433 202.62 30.338C202.405 30.1233 202.149 29.96 201.85 29.848C201.551 29.736 201.225 29.68 200.87 29.68C200.515 29.68 200.161 29.7313 199.806 29.834C199.461 29.9273 199.129 30.058 198.812 30.226L198.91 25.088H203.964V26.012Z" fill="#4A5660"/>
<path d="M271 35.825L274.825 32L271 28.175L272.183 27L277.183 32L272.183 37L271 35.825Z" fill="#B5BEC6"/>
</g>
<path d="M31.7123 69.09C31.399 68.63 30.9423 68.4 30.3423 68.4C30.1557 68.4 29.9723 68.4267 29.7923 68.48C29.6123 68.5267 29.449 68.6033 29.3023 68.71C29.1623 68.81 29.049 68.9433 28.9623 69.11C28.8757 69.27 28.8323 69.46 28.8323 69.68C28.8323 70 28.9223 70.25 29.1023 70.43C29.2823 70.6033 29.5057 70.7467 29.7723 70.86C30.039 70.9733 30.329 71.0767 30.6423 71.17C30.9623 71.2567 31.2557 71.3767 31.5223 71.53C31.789 71.6767 32.0123 71.8733 32.1923 72.12C32.3723 72.3667 32.4623 72.7033 32.4623 73.13C32.4623 73.45 32.3923 73.74 32.2523 74C32.119 74.2533 31.939 74.4667 31.7123 74.64C31.4923 74.8133 31.2423 74.9467 30.9623 75.04C30.689 75.1333 30.4123 75.18 30.1323 75.18C29.699 75.18 29.2857 75.1 28.8923 74.94C28.5057 74.7733 28.1757 74.5033 27.9023 74.13L28.5523 73.66C28.7057 73.92 28.919 74.13 29.1923 74.29C29.4657 74.4433 29.789 74.52 30.1623 74.52C30.3423 74.52 30.5223 74.4933 30.7023 74.44C30.8823 74.38 31.0423 74.2967 31.1823 74.19C31.329 74.0767 31.449 73.94 31.5423 73.78C31.6357 73.62 31.6823 73.4367 31.6823 73.23C31.6823 72.9833 31.629 72.78 31.5223 72.62C31.4223 72.4533 31.2857 72.3167 31.1123 72.21C30.9457 72.0967 30.7523 72.0033 30.5323 71.93C30.319 71.8567 30.0957 71.7833 29.8623 71.71C29.6357 71.6367 29.4123 71.5533 29.1923 71.46C28.979 71.3667 28.7857 71.25 28.6123 71.11C28.4457 70.9633 28.309 70.7833 28.2023 70.57C28.1023 70.35 28.0523 70.0767 28.0523 69.75C28.0523 69.41 28.1157 69.1133 28.2423 68.86C28.3757 68.6067 28.549 68.3967 28.7623 68.23C28.9823 68.0633 29.229 67.94 29.5023 67.86C29.7757 67.78 30.0557 67.74 30.3423 67.74C30.7423 67.74 31.1057 67.8033 31.4323 67.93C31.759 68.0567 32.0623 68.28 32.3423 68.6L31.7123 69.09ZM36.349 72.48H39.419L37.889 68.76L36.349 72.48ZM35.299 75H34.459L37.539 67.92H38.239L41.319 75H40.479L39.699 73.14H36.079L35.299 75ZM48.8945 73.92H48.9145V67.92H49.6345V75H48.7345L44.5145 68.94H44.4945V75H43.7745V67.92H44.6745L48.8945 73.92Z" fill="#B5BEC6"/>
<path d="M66.6902 73.68L69.0802 67.92H70.1802V75H69.4602V68.88H69.4402L66.8802 75H66.5002L63.9402 68.88H63.9202V75H63.2002V67.92H64.3002L66.6902 73.68ZM79.7167 71.46C79.7167 71.0533 79.6501 70.6667 79.5167 70.3C79.3834 69.9267 79.1901 69.6 78.9367 69.32C78.6901 69.04 78.3867 68.8167 78.0267 68.65C77.6667 68.4833 77.2601 68.4 76.8067 68.4C76.3534 68.4 75.9467 68.4833 75.5867 68.65C75.2267 68.8167 74.9201 69.04 74.6667 69.32C74.4201 69.6 74.2301 69.9267 74.0967 70.3C73.9634 70.6667 73.8967 71.0533 73.8967 71.46C73.8967 71.8667 73.9634 72.2567 74.0967 72.63C74.2301 72.9967 74.4201 73.32 74.6667 73.6C74.9201 73.88 75.2267 74.1033 75.5867 74.27C75.9467 74.4367 76.3534 74.52 76.8067 74.52C77.2601 74.52 77.6667 74.4367 78.0267 74.27C78.3867 74.1033 78.6901 73.88 78.9367 73.6C79.1901 73.32 79.3834 72.9967 79.5167 72.63C79.6501 72.2567 79.7167 71.8667 79.7167 71.46ZM80.4967 71.46C80.4967 72 80.4034 72.4967 80.2167 72.95C80.0301 73.4033 79.7701 73.7967 79.4367 74.13C79.1101 74.4567 78.7201 74.7133 78.2667 74.9C77.8201 75.0867 77.3334 75.18 76.8067 75.18C76.2801 75.18 75.7901 75.0867 75.3367 74.9C74.8901 74.7133 74.5001 74.4567 74.1667 74.13C73.8401 73.7967 73.5834 73.4033 73.3967 72.95C73.2101 72.4967 73.1167 72 73.1167 71.46C73.1167 70.92 73.2101 70.4233 73.3967 69.97C73.5834 69.5167 73.8401 69.1267 74.1667 68.8C74.5001 68.4667 74.8901 68.2067 75.3367 68.02C75.7901 67.8333 76.2801 67.74 76.8067 67.74C77.3334 67.74 77.8201 67.8333 78.2667 68.02C78.7201 68.2067 79.1101 68.4667 79.4367 68.8C79.7701 69.1267 80.0301 69.5167 80.2167 69.97C80.4034 70.4233 80.4967 70.92 80.4967 71.46ZM88.5566 73.92H88.5766V67.92H89.2966V75H88.3966L84.1766 68.94H84.1566V75H83.4366V67.92H84.3366L88.5566 73.92Z" fill="#B5BEC6"/>
<path d="M107.467 75H106.747V68.58H104.377V67.92H109.837V68.58H107.467V75ZM117.499 72.36C117.499 72.6533 117.463 72.9667 117.389 73.3C117.323 73.6267 117.193 73.93 116.999 74.21C116.806 74.49 116.539 74.7233 116.199 74.91C115.866 75.09 115.436 75.18 114.909 75.18C114.376 75.18 113.943 75.09 113.609 74.91C113.276 74.7233 113.013 74.49 112.819 74.21C112.626 73.93 112.493 73.6267 112.419 73.3C112.353 72.9667 112.319 72.6533 112.319 72.36V67.92H113.039V72.28C113.039 72.62 113.073 72.9133 113.139 73.16C113.206 73.4 113.293 73.6033 113.399 73.77C113.513 73.9367 113.636 74.07 113.769 74.17C113.909 74.2633 114.046 74.3367 114.179 74.39C114.319 74.4433 114.453 74.48 114.579 74.5C114.706 74.5133 114.816 74.52 114.909 74.52C114.996 74.52 115.103 74.5133 115.229 74.5C115.363 74.48 115.496 74.4433 115.629 74.39C115.769 74.3367 115.906 74.2633 116.039 74.17C116.179 74.07 116.303 73.9367 116.409 73.77C116.523 73.6033 116.613 73.4 116.679 73.16C116.746 72.9133 116.779 72.62 116.779 72.28V67.92H117.499V72.36ZM121.515 74.34H125.305V75H120.795V67.92H125.185V68.58H121.515V70.99H124.945V71.65H121.515V74.34Z" fill="#B5BEC6"/>
<path d="M142.608 73.98H142.628L144.408 67.92H145.268L147.048 73.98H147.068L148.748 67.92H149.548L147.458 75H146.618L144.838 68.94H144.818L143.038 75H142.198L140.108 67.92H140.908L142.608 73.98ZM152.732 74.34H156.522V75H152.012V67.92H156.402V68.58H152.732V70.99H156.162V71.65H152.732V74.34ZM160.059 74.34H161.459C161.999 74.34 162.466 74.26 162.859 74.1C163.259 73.9333 163.589 73.7167 163.849 73.45C164.116 73.1767 164.313 72.87 164.439 72.53C164.566 72.1833 164.629 71.8267 164.629 71.46C164.629 71.0933 164.566 70.74 164.439 70.4C164.313 70.0533 164.116 69.7467 163.849 69.48C163.589 69.2067 163.259 68.99 162.859 68.83C162.466 68.6633 161.999 68.58 161.459 68.58H160.059V74.34ZM159.339 67.92H161.689C162.129 67.92 162.569 67.9933 163.009 68.14C163.456 68.2867 163.856 68.51 164.209 68.81C164.569 69.1033 164.859 69.4733 165.079 69.92C165.299 70.36 165.409 70.8733 165.409 71.46C165.409 72.0533 165.299 72.57 165.079 73.01C164.859 73.45 164.569 73.82 164.209 74.12C163.856 74.4133 163.456 74.6333 163.009 74.78C162.569 74.9267 162.129 75 161.689 75H159.339V67.92Z" fill="#B5BEC6"/>
<path d="M182.823 75H182.103V68.58H179.733V67.92H185.193V68.58H182.823V75ZM187.795 67.92H188.515V70.99H192.375V67.92H193.095V75H192.375V71.65H188.515V75H187.795V67.92ZM201.572 72.36C201.572 72.6533 201.535 72.9667 201.462 73.3C201.395 73.6267 201.265 73.93 201.072 74.21C200.878 74.49 200.612 74.7233 200.272 74.91C199.938 75.09 199.508 75.18 198.982 75.18C198.448 75.18 198.015 75.09 197.682 74.91C197.348 74.7233 197.085 74.49 196.892 74.21C196.698 73.93 196.565 73.6267 196.492 73.3C196.425 72.9667 196.392 72.6533 196.392 72.36V67.92H197.112V72.28C197.112 72.62 197.145 72.9133 197.212 73.16C197.278 73.4 197.365 73.6033 197.472 73.77C197.585 73.9367 197.708 74.07 197.842 74.17C197.982 74.2633 198.118 74.3367 198.252 74.39C198.392 74.4433 198.525 74.48 198.652 74.5C198.778 74.5133 198.888 74.52 198.982 74.52C199.068 74.52 199.175 74.5133 199.302 74.5C199.435 74.48 199.568 74.4433 199.702 74.39C199.842 74.3367 199.978 74.2633 200.112 74.17C200.252 74.07 200.375 73.9367 200.482 73.77C200.595 73.6033 200.685 73.4 200.752 73.16C200.818 72.9133 200.852 72.62 200.852 72.28V67.92H201.572V72.36Z" fill="#B5BEC6"/>
<path d="M222.119 75H221.399V67.92H225.669V68.58H222.119V70.99H225.419V71.65H222.119V75ZM229.176 71.05H230.456C230.776 71.05 231.046 71.0167 231.266 70.95C231.493 70.8833 231.673 70.7967 231.806 70.69C231.939 70.5767 232.036 70.4467 232.096 70.3C232.156 70.1467 232.186 69.9833 232.186 69.81C232.186 69.6433 232.156 69.4867 232.096 69.34C232.036 69.1867 231.939 69.0533 231.806 68.94C231.673 68.8267 231.493 68.74 231.266 68.68C231.046 68.6133 230.776 68.58 230.456 68.58H229.176V71.05ZM229.176 75H228.456V67.92H230.636C231.356 67.92 231.923 68.0767 232.336 68.39C232.756 68.7033 232.966 69.1767 232.966 69.81C232.966 70.3033 232.809 70.72 232.496 71.06C232.189 71.3933 231.743 71.5867 231.156 71.64L233.196 75H232.316L230.376 71.71H229.176V75ZM236.604 75H235.884V67.92H236.604V75Z" fill="#B5BEC6"/>
<path d="M261.075 69.09C260.761 68.63 260.305 68.4 259.705 68.4C259.518 68.4 259.335 68.4267 259.155 68.48C258.975 68.5267 258.811 68.6033 258.665 68.71C258.525 68.81 258.411 68.9433 258.325 69.11C258.238 69.27 258.195 69.46 258.195 69.68C258.195 70 258.285 70.25 258.465 70.43C258.645 70.6033 258.868 70.7467 259.135 70.86C259.401 70.9733 259.691 71.0767 260.005 71.17C260.325 71.2567 260.618 71.3767 260.885 71.53C261.151 71.6767 261.375 71.8733 261.555 72.12C261.735 72.3667 261.825 72.7033 261.825 73.13C261.825 73.45 261.755 73.74 261.615 74C261.481 74.2533 261.301 74.4667 261.075 74.64C260.855 74.8133 260.605 74.9467 260.325 75.04C260.051 75.1333 259.775 75.18 259.495 75.18C259.061 75.18 258.648 75.1 258.255 74.94C257.868 74.7733 257.538 74.5033 257.265 74.13L257.915 73.66C258.068 73.92 258.281 74.13 258.555 74.29C258.828 74.4433 259.151 74.52 259.525 74.52C259.705 74.52 259.885 74.4933 260.065 74.44C260.245 74.38 260.405 74.2967 260.545 74.19C260.691 74.0767 260.811 73.94 260.905 73.78C260.998 73.62 261.045 73.4367 261.045 73.23C261.045 72.9833 260.991 72.78 260.885 72.62C260.785 72.4533 260.648 72.3167 260.475 72.21C260.308 72.0967 260.115 72.0033 259.895 71.93C259.681 71.8567 259.458 71.7833 259.225 71.71C258.998 71.6367 258.775 71.5533 258.555 71.46C258.341 71.3667 258.148 71.25 257.975 71.11C257.808 70.9633 257.671 70.7833 257.565 70.57C257.465 70.35 257.415 70.0767 257.415 69.75C257.415 69.41 257.478 69.1133 257.605 68.86C257.738 68.6067 257.911 68.3967 258.125 68.23C258.345 68.0633 258.591 67.94 258.865 67.86C259.138 67.78 259.418 67.74 259.705 67.74C260.105 67.74 260.468 67.8033 260.795 67.93C261.121 68.0567 261.425 68.28 261.705 68.6L261.075 69.09ZM265.711 72.48H268.781L267.251 68.76L265.711 72.48ZM264.661 75H263.821L266.901 67.92H267.601L270.681 75H269.841L269.061 73.14H265.441L264.661 75ZM274.723 75H274.003V68.58H271.633V67.92H277.093V68.58H274.723V75Z" fill="#B5BEC6"/>
<path d="M40.1227 125.5H38.9707V115.612L36.9387 117.404L36.2187 116.54L39.0987 114.172H40.1227V125.5Z" fill="#4A5660"/>
<path d="M80.5227 125.5H73.3227V124.172L77.8347 119.58C78.0054 119.409 78.176 119.228 78.3467 119.036C78.5174 118.844 78.672 118.641 78.8107 118.428C78.9494 118.215 79.0614 117.991 79.1467 117.756C79.232 117.521 79.2747 117.276 79.2747 117.02C79.2747 116.711 79.216 116.433 79.0987 116.188C78.992 115.943 78.8374 115.735 78.6347 115.564C78.432 115.393 78.1974 115.265 77.9307 115.18C77.664 115.084 77.3814 115.036 77.0827 115.036C76.5067 115.036 76.016 115.196 75.6107 115.516C75.2054 115.836 74.944 116.268 74.8267 116.812L73.6107 116.684C73.7707 115.841 74.1547 115.18 74.7627 114.7C75.3814 114.22 76.128 113.98 77.0027 113.98C77.4614 113.98 77.8934 114.044 78.2987 114.172C78.7147 114.289 79.0774 114.471 79.3867 114.716C79.7067 114.961 79.9574 115.271 80.1387 115.644C80.3307 116.007 80.4267 116.433 80.4267 116.924C80.4267 117.361 80.3574 117.761 80.2187 118.124C80.0907 118.487 79.92 118.828 79.7067 119.148C79.4934 119.468 79.248 119.772 78.9707 120.06C78.704 120.348 78.4267 120.631 78.1387 120.908L74.5707 124.444H80.5227V125.5Z" fill="#4A5660"/>
<path d="M113.819 119.036H114.411C114.741 119.036 115.056 118.999 115.355 118.924C115.664 118.849 115.931 118.732 116.155 118.572C116.379 118.401 116.555 118.183 116.683 117.916C116.821 117.649 116.891 117.329 116.891 116.956C116.891 116.348 116.704 115.879 116.331 115.548C115.968 115.207 115.456 115.036 114.795 115.036C114.315 115.036 113.893 115.143 113.531 115.356C113.168 115.569 112.869 115.879 112.635 116.284L111.627 115.772C111.968 115.164 112.4 114.716 112.923 114.428C113.456 114.129 114.069 113.98 114.763 113.98C115.211 113.98 115.632 114.044 116.027 114.172C116.421 114.3 116.768 114.492 117.067 114.748C117.365 114.993 117.6 115.303 117.771 115.676C117.952 116.039 118.043 116.455 118.043 116.924C118.043 117.233 117.989 117.527 117.883 117.804C117.787 118.081 117.648 118.332 117.467 118.556C117.296 118.78 117.093 118.977 116.859 119.148C116.624 119.308 116.379 119.431 116.123 119.516L116.171 119.548C116.491 119.612 116.784 119.735 117.051 119.916C117.317 120.087 117.547 120.3 117.739 120.556C117.931 120.812 118.08 121.1 118.187 121.42C118.293 121.74 118.347 122.076 118.347 122.428C118.347 122.951 118.251 123.415 118.059 123.82C117.867 124.225 117.605 124.567 117.275 124.844C116.944 125.121 116.56 125.335 116.123 125.484C115.685 125.623 115.221 125.692 114.731 125.692C113.899 125.692 113.173 125.511 112.555 125.148C111.936 124.785 111.472 124.204 111.163 123.404L112.379 123.036C112.571 123.58 112.853 123.985 113.227 124.252C113.611 124.508 114.144 124.636 114.827 124.636C115.147 124.636 115.451 124.583 115.739 124.476C116.027 124.369 116.277 124.22 116.491 124.028C116.715 123.825 116.885 123.585 117.003 123.308C117.131 123.031 117.195 122.727 117.195 122.396C117.195 121.969 117.115 121.612 116.955 121.324C116.795 121.025 116.581 120.785 116.315 120.604C116.048 120.423 115.739 120.295 115.387 120.22C115.045 120.135 114.688 120.092 114.315 120.092H113.819V119.036Z" fill="#4A5660"/>
<path d="M154.059 115.324H154.027L150.123 121.756H154.059V115.324ZM155.211 121.756H156.843V122.812H155.211V125.5H154.059V122.812H149.163V121.5L153.739 114.172H155.211V121.756Z" fill="#4A5660"/>
<path d="M193.995 115.228H189.355L189.291 118.636C189.536 118.54 189.787 118.471 190.043 118.428C190.299 118.385 190.555 118.364 190.811 118.364C191.344 118.364 191.829 118.455 192.267 118.636C192.704 118.817 193.077 119.073 193.387 119.404C193.707 119.724 193.952 120.108 194.123 120.556C194.304 120.993 194.395 121.473 194.395 121.996C194.395 122.54 194.299 123.041 194.107 123.5C193.915 123.948 193.648 124.337 193.307 124.668C192.965 124.988 192.56 125.239 192.091 125.42C191.632 125.601 191.131 125.692 190.587 125.692C189.872 125.692 189.227 125.521 188.651 125.18C188.075 124.839 187.632 124.337 187.323 123.676L188.459 123.18C188.672 123.628 188.971 123.985 189.355 124.252C189.739 124.508 190.181 124.636 190.683 124.636C191.045 124.636 191.381 124.572 191.691 124.444C192 124.305 192.267 124.124 192.491 123.9C192.725 123.676 192.907 123.409 193.035 123.1C193.173 122.791 193.243 122.46 193.243 122.108C193.243 121.713 193.173 121.351 193.035 121.02C192.896 120.689 192.704 120.407 192.459 120.172C192.213 119.927 191.92 119.74 191.579 119.612C191.237 119.484 190.864 119.42 190.459 119.42C190.053 119.42 189.648 119.479 189.243 119.596C188.848 119.703 188.469 119.852 188.107 120.044L188.219 114.172H193.995V115.228Z" fill="#4A5660"/>
<path d="M226.475 122.188C226.475 122.551 226.533 122.881 226.651 123.18C226.779 123.479 226.955 123.74 227.179 123.964C227.403 124.177 227.669 124.343 227.979 124.46C228.288 124.577 228.629 124.636 229.003 124.636C229.376 124.636 229.717 124.577 230.027 124.46C230.336 124.343 230.603 124.177 230.827 123.964C231.051 123.74 231.221 123.479 231.339 123.18C231.467 122.881 231.531 122.551 231.531 122.188C231.531 121.825 231.467 121.495 231.339 121.196C231.221 120.897 231.051 120.641 230.827 120.428C230.603 120.215 230.336 120.049 230.027 119.932C229.717 119.804 229.376 119.74 229.003 119.74C228.629 119.74 228.288 119.804 227.979 119.932C227.669 120.049 227.403 120.215 227.179 120.428C226.955 120.641 226.779 120.897 226.651 121.196C226.533 121.495 226.475 121.825 226.475 122.188ZM227.627 119.036L227.659 119.068C227.84 118.94 228.08 118.844 228.379 118.78C228.688 118.716 228.971 118.684 229.227 118.684C229.717 118.684 230.171 118.775 230.587 118.956C231.013 119.127 231.381 119.367 231.691 119.676C232 119.985 232.24 120.353 232.411 120.78C232.592 121.207 232.683 121.676 232.683 122.188C232.683 122.711 232.592 123.185 232.411 123.612C232.229 124.039 231.973 124.407 231.643 124.716C231.312 125.025 230.923 125.265 230.475 125.436C230.027 125.607 229.536 125.692 229.003 125.692C228.469 125.692 227.979 125.607 227.531 125.436C227.083 125.265 226.693 125.025 226.363 124.716C226.032 124.407 225.776 124.039 225.595 123.612C225.413 123.185 225.323 122.711 225.323 122.188C225.323 121.559 225.413 121.009 225.595 120.54C225.787 120.071 226.021 119.607 226.299 119.148L229.355 114.172H230.715L227.627 119.036Z" fill="#4A5660"/>
<path d="M270.139 115.228L265.579 125.5H264.283L268.939 115.228H263.419V114.172H270.139V115.228Z" fill="#4A5660"/>
<path d="M41.4347 160.316C41.4347 159.985 41.376 159.681 41.2587 159.404C41.1414 159.116 40.976 158.871 40.7627 158.668C40.56 158.455 40.304 158.289 39.9947 158.172C39.696 158.055 39.3654 157.996 39.0027 157.996C38.6294 157.996 38.2934 158.055 37.9947 158.172C37.696 158.289 37.44 158.455 37.2267 158.668C37.024 158.871 36.864 159.116 36.7467 159.404C36.6294 159.681 36.5707 159.985 36.5707 160.316C36.5707 160.647 36.6294 160.956 36.7467 161.244C36.864 161.521 37.024 161.767 37.2267 161.98C37.44 162.183 37.696 162.343 37.9947 162.46C38.2934 162.577 38.6294 162.636 39.0027 162.636C39.3654 162.636 39.696 162.577 39.9947 162.46C40.304 162.343 40.56 162.183 40.7627 161.98C40.976 161.767 41.1414 161.521 41.2587 161.244C41.376 160.956 41.4347 160.647 41.4347 160.316ZM41.0187 155.036C41.0187 154.748 40.9654 154.481 40.8587 154.236C40.7627 153.991 40.624 153.783 40.4427 153.612C40.2614 153.431 40.048 153.292 39.8027 153.196C39.5574 153.089 39.2907 153.036 39.0027 153.036C38.7147 153.036 38.448 153.089 38.2027 153.196C37.9574 153.292 37.744 153.431 37.5627 153.612C37.3814 153.783 37.2374 153.991 37.1307 154.236C37.0347 154.481 36.9867 154.748 36.9867 155.036C36.9867 155.324 37.0347 155.591 37.1307 155.836C37.2374 156.081 37.3814 156.295 37.5627 156.476C37.744 156.647 37.9574 156.785 38.2027 156.892C38.448 156.988 38.7147 157.036 39.0027 157.036C39.2907 157.036 39.5574 156.988 39.8027 156.892C40.048 156.785 40.2614 156.647 40.4427 156.476C40.624 156.295 40.7627 156.081 40.8587 155.836C40.9654 155.591 41.0187 155.324 41.0187 155.036ZM37.5307 157.468C37.2854 157.383 37.056 157.26 36.8427 157.1C36.64 156.929 36.464 156.732 36.3147 156.508C36.1654 156.284 36.048 156.039 35.9627 155.772C35.8774 155.505 35.8347 155.228 35.8347 154.94C35.8347 154.492 35.92 154.087 36.0907 153.724C36.2614 153.351 36.4907 153.036 36.7787 152.78C37.0667 152.524 37.4027 152.327 37.7867 152.188C38.1707 152.049 38.576 151.98 39.0027 151.98C39.4294 151.98 39.8347 152.049 40.2187 152.188C40.6027 152.327 40.9387 152.524 41.2267 152.78C41.5147 153.036 41.744 153.351 41.9147 153.724C42.0854 154.087 42.1707 154.492 42.1707 154.94C42.1707 155.228 42.128 155.505 42.0427 155.772C41.9574 156.039 41.84 156.284 41.6907 156.508C41.5414 156.732 41.36 156.929 41.1467 157.1C40.944 157.26 40.72 157.383 40.4747 157.468V157.5C41.1147 157.671 41.6267 158.023 42.0107 158.556C42.3947 159.089 42.5867 159.729 42.5867 160.476C42.5867 160.967 42.4854 161.409 42.2827 161.804C42.0907 162.199 41.8294 162.54 41.4987 162.828C41.1787 163.105 40.8 163.319 40.3627 163.468C39.936 163.617 39.4827 163.692 39.0027 163.692C38.5227 163.692 38.064 163.617 37.6267 163.468C37.2 163.319 36.8214 163.105 36.4907 162.828C36.1707 162.54 35.9094 162.199 35.7067 161.804C35.5147 161.409 35.4187 160.967 35.4187 160.476C35.4187 159.729 35.6107 159.089 35.9947 158.556C36.3787 158.023 36.8907 157.671 37.5307 157.5V157.468Z" fill="#4A5660"/>
<path d="M79.5307 155.484C79.5307 155.121 79.4667 154.791 79.3387 154.492C79.2214 154.193 79.0507 153.937 78.8267 153.724C78.6027 153.511 78.336 153.345 78.0267 153.228C77.7174 153.1 77.376 153.036 77.0027 153.036C76.6294 153.036 76.288 153.1 75.9787 153.228C75.6694 153.345 75.4027 153.511 75.1787 153.724C74.9547 153.937 74.7787 154.193 74.6507 154.492C74.5334 154.791 74.4747 155.121 74.4747 155.484C74.4747 155.847 74.5334 156.177 74.6507 156.476C74.7787 156.775 74.9547 157.036 75.1787 157.26C75.4027 157.473 75.6694 157.639 75.9787 157.756C76.288 157.873 76.6294 157.932 77.0027 157.932C77.376 157.932 77.7174 157.873 78.0267 157.756C78.336 157.639 78.6027 157.473 78.8267 157.26C79.0507 157.036 79.2214 156.775 79.3387 156.476C79.4667 156.177 79.5307 155.847 79.5307 155.484ZM78.3787 158.636L78.3467 158.604C78.1654 158.732 77.92 158.828 77.6107 158.892C77.312 158.956 77.0347 158.988 76.7787 158.988C76.288 158.988 75.8294 158.903 75.4027 158.732C74.9867 158.551 74.624 158.305 74.3147 157.996C74.0054 157.687 73.76 157.319 73.5787 156.892C73.408 156.465 73.3227 155.996 73.3227 155.484C73.3227 154.961 73.4134 154.487 73.5947 154.06C73.776 153.633 74.032 153.265 74.3627 152.956C74.6934 152.647 75.0827 152.407 75.5307 152.236C75.9787 152.065 76.4694 151.98 77.0027 151.98C77.536 151.98 78.0267 152.065 78.4747 152.236C78.9227 152.407 79.312 152.647 79.6427 152.956C79.9734 153.265 80.2294 153.633 80.4107 154.06C80.592 154.487 80.6827 154.961 80.6827 155.484C80.6827 156.113 80.5867 156.663 80.3947 157.132C80.2134 157.601 79.984 158.065 79.7067 158.524L76.6507 163.5H75.2907L78.3787 158.636Z" fill="#4A5660"/>
<path d="M111.677 163.5H110.525V153.612L108.493 155.404L107.773 154.54L110.653 152.172H111.677V163.5ZM119.448 153.036C118.829 153.036 118.339 153.201 117.976 153.532C117.624 153.863 117.357 154.273 117.176 154.764C116.995 155.255 116.877 155.777 116.824 156.332C116.781 156.887 116.76 157.388 116.76 157.836C116.76 158.284 116.781 158.785 116.824 159.34C116.877 159.895 116.995 160.417 117.176 160.908C117.357 161.399 117.624 161.809 117.976 162.14C118.339 162.471 118.829 162.636 119.448 162.636C120.067 162.636 120.552 162.471 120.904 162.14C121.267 161.809 121.539 161.399 121.72 160.908C121.901 160.417 122.013 159.895 122.056 159.34C122.109 158.785 122.136 158.284 122.136 157.836C122.136 157.388 122.109 156.887 122.056 156.332C122.013 155.777 121.901 155.255 121.72 154.764C121.539 154.273 121.267 153.863 120.904 153.532C120.552 153.201 120.067 153.036 119.448 153.036ZM119.448 151.98C120.259 151.98 120.915 152.167 121.416 152.54C121.917 152.913 122.307 153.388 122.584 153.964C122.861 154.54 123.048 155.175 123.144 155.868C123.24 156.551 123.288 157.207 123.288 157.836C123.288 158.465 123.24 159.127 123.144 159.82C123.048 160.503 122.861 161.132 122.584 161.708C122.307 162.284 121.917 162.759 121.416 163.132C120.915 163.505 120.259 163.692 119.448 163.692C118.637 163.692 117.981 163.505 117.48 163.132C116.979 162.759 116.589 162.284 116.312 161.708C116.035 161.132 115.848 160.503 115.752 159.82C115.656 159.127 115.608 158.465 115.608 157.836C115.608 157.207 115.656 156.551 115.752 155.868C115.848 155.175 116.035 154.54 116.312 153.964C116.589 153.388 116.979 152.913 117.48 152.54C117.981 152.167 118.637 151.98 119.448 151.98Z" fill="#4A5660"/>
<path d="M149.677 163.5H148.525V153.612L146.493 155.404L145.773 154.54L148.653 152.172H149.677V163.5ZM158.568 163.5H157.416V153.612L155.384 155.404L154.664 154.54L157.544 152.172H158.568V163.5Z" fill="#4A5660"/>
<path d="M187.677 163.5H186.525V153.612L184.493 155.404L183.773 154.54L186.653 152.172H187.677V163.5ZM198.968 163.5H191.768V162.172L196.28 157.58C196.451 157.409 196.621 157.228 196.792 157.036C196.963 156.844 197.117 156.641 197.256 156.428C197.395 156.215 197.507 155.991 197.592 155.756C197.677 155.521 197.72 155.276 197.72 155.02C197.72 154.711 197.661 154.433 197.544 154.188C197.437 153.943 197.283 153.735 197.08 153.564C196.877 153.393 196.643 153.265 196.376 153.18C196.109 153.084 195.827 153.036 195.528 153.036C194.952 153.036 194.461 153.196 194.056 153.516C193.651 153.836 193.389 154.268 193.272 154.812L192.056 154.684C192.216 153.841 192.6 153.18 193.208 152.7C193.827 152.22 194.573 151.98 195.448 151.98C195.907 151.98 196.339 152.044 196.744 152.172C197.16 152.289 197.523 152.471 197.832 152.716C198.152 152.961 198.403 153.271 198.584 153.644C198.776 154.007 198.872 154.433 198.872 154.924C198.872 155.361 198.803 155.761 198.664 156.124C198.536 156.487 198.365 156.828 198.152 157.148C197.939 157.468 197.693 157.772 197.416 158.06C197.149 158.348 196.872 158.631 196.584 158.908L193.016 162.444H198.968V163.5Z" fill="#4A5660"/>
<path d="M225.677 163.5H224.525V153.612L222.493 155.404L221.773 154.54L224.653 152.172H225.677V163.5ZM232.264 157.036H232.856C233.187 157.036 233.501 156.999 233.8 156.924C234.109 156.849 234.376 156.732 234.6 156.572C234.824 156.401 235 156.183 235.128 155.916C235.267 155.649 235.336 155.329 235.336 154.956C235.336 154.348 235.149 153.879 234.776 153.548C234.413 153.207 233.901 153.036 233.24 153.036C232.76 153.036 232.339 153.143 231.976 153.356C231.613 153.569 231.315 153.879 231.08 154.284L230.072 153.772C230.413 153.164 230.845 152.716 231.368 152.428C231.901 152.129 232.515 151.98 233.208 151.98C233.656 151.98 234.077 152.044 234.472 152.172C234.867 152.3 235.213 152.492 235.512 152.748C235.811 152.993 236.045 153.303 236.216 153.676C236.397 154.039 236.488 154.455 236.488 154.924C236.488 155.233 236.435 155.527 236.328 155.804C236.232 156.081 236.093 156.332 235.912 156.556C235.741 156.78 235.539 156.977 235.304 157.148C235.069 157.308 234.824 157.431 234.568 157.516L234.616 157.548C234.936 157.612 235.229 157.735 235.496 157.916C235.763 158.087 235.992 158.3 236.184 158.556C236.376 158.812 236.525 159.1 236.632 159.42C236.739 159.74 236.792 160.076 236.792 160.428C236.792 160.951 236.696 161.415 236.504 161.82C236.312 162.225 236.051 162.567 235.72 162.844C235.389 163.121 235.005 163.335 234.568 163.484C234.131 163.623 233.667 163.692 233.176 163.692C232.344 163.692 231.619 163.511 231 163.148C230.381 162.785 229.917 162.204 229.608 161.404L230.824 161.036C231.016 161.58 231.299 161.985 231.672 162.252C232.056 162.508 232.589 162.636 233.272 162.636C233.592 162.636 233.896 162.583 234.184 162.476C234.472 162.369 234.723 162.22 234.936 162.028C235.16 161.825 235.331 161.585 235.448 161.308C235.576 161.031 235.64 160.727 235.64 160.396C235.64 159.969 235.56 159.612 235.4 159.324C235.24 159.025 235.027 158.785 234.76 158.604C234.493 158.423 234.184 158.295 233.832 158.22C233.491 158.135 233.133 158.092 232.76 158.092H232.264V157.036Z" fill="#4A5660"/>
<path d="M263.677 163.5H262.525V153.612L260.493 155.404L259.773 154.54L262.653 152.172H263.677V163.5ZM272.504 153.324H272.472L268.568 159.756H272.504V153.324ZM273.656 159.756H275.288V160.812H273.656V163.5H272.504V160.812H267.608V159.5L272.184 152.172H273.656V159.756Z" fill="#4A5660"/>
<path d="M35.6774 201.5H34.5254V191.612L32.4934 193.404L31.7734 192.54L34.6534 190.172H35.6774V201.5ZM46.44 191.228H41.8L41.736 194.636C41.9813 194.54 42.232 194.471 42.488 194.428C42.744 194.385 43 194.364 43.256 194.364C43.7893 194.364 44.2747 194.455 44.712 194.636C45.1493 194.817 45.5227 195.073 45.832 195.404C46.152 195.724 46.3973 196.108 46.568 196.556C46.7493 196.993 46.84 197.473 46.84 197.996C46.84 198.54 46.744 199.041 46.552 199.5C46.36 199.948 46.0933 200.337 45.752 200.668C45.4107 200.988 45.0053 201.239 44.536 201.42C44.0773 201.601 43.576 201.692 43.032 201.692C42.3173 201.692 41.672 201.521 41.096 201.18C40.52 200.839 40.0773 200.337 39.768 199.676L40.904 199.18C41.1173 199.628 41.416 199.985 41.8 200.252C42.184 200.508 42.6267 200.636 43.128 200.636C43.4907 200.636 43.8267 200.572 44.136 200.444C44.4453 200.305 44.712 200.124 44.936 199.9C45.1707 199.676 45.352 199.409 45.48 199.1C45.6187 198.791 45.688 198.46 45.688 198.108C45.688 197.713 45.6187 197.351 45.48 197.02C45.3413 196.689 45.1493 196.407 44.904 196.172C44.6587 195.927 44.3653 195.74 44.024 195.612C43.6827 195.484 43.3093 195.42 42.904 195.42C42.4987 195.42 42.0933 195.479 41.688 195.596C41.2933 195.703 40.9147 195.852 40.552 196.044L40.664 190.172H46.44V191.228Z" fill="#4A5660"/>
<path d="M73.6774 201.5H72.5254V191.612L70.4934 193.404L69.7734 192.54L72.6534 190.172H73.6774V201.5ZM78.92 198.188C78.92 198.551 78.9787 198.881 79.096 199.18C79.224 199.479 79.4 199.74 79.624 199.964C79.848 200.177 80.1147 200.343 80.424 200.46C80.7333 200.577 81.0747 200.636 81.448 200.636C81.8213 200.636 82.1627 200.577 82.472 200.46C82.7813 200.343 83.048 200.177 83.272 199.964C83.496 199.74 83.6667 199.479 83.784 199.18C83.912 198.881 83.976 198.551 83.976 198.188C83.976 197.825 83.912 197.495 83.784 197.196C83.6667 196.897 83.496 196.641 83.272 196.428C83.048 196.215 82.7813 196.049 82.472 195.932C82.1627 195.804 81.8213 195.74 81.448 195.74C81.0747 195.74 80.7333 195.804 80.424 195.932C80.1147 196.049 79.848 196.215 79.624 196.428C79.4 196.641 79.224 196.897 79.096 197.196C78.9787 197.495 78.92 197.825 78.92 198.188ZM80.072 195.036L80.104 195.068C80.2853 194.94 80.5253 194.844 80.824 194.78C81.1333 194.716 81.416 194.684 81.672 194.684C82.1627 194.684 82.616 194.775 83.032 194.956C83.4587 195.127 83.8267 195.367 84.136 195.676C84.4453 195.985 84.6853 196.353 84.856 196.78C85.0373 197.207 85.128 197.676 85.128 198.188C85.128 198.711 85.0373 199.185 84.856 199.612C84.6747 200.039 84.4187 200.407 84.088 200.716C83.7573 201.025 83.368 201.265 82.92 201.436C82.472 201.607 81.9813 201.692 81.448 201.692C80.9147 201.692 80.424 201.607 79.976 201.436C79.528 201.265 79.1387 201.025 78.808 200.716C78.4773 200.407 78.2213 200.039 78.04 199.612C77.8587 199.185 77.768 198.711 77.768 198.188C77.768 197.559 77.8587 197.009 78.04 196.54C78.232 196.071 78.4667 195.607 78.744 195.148L81.8 190.172H83.16L80.072 195.036Z" fill="#4A5660"/>
<path d="M111.677 201.5H110.525V191.612L108.493 193.404L107.773 192.54L110.653 190.172H111.677V201.5ZM122.584 191.228L118.024 201.5H116.728L121.384 191.228H115.864V190.172H122.584V191.228Z" fill="#4A5660"/>
<path d="M149.677 201.5H148.525V191.612L146.493 193.404L145.773 192.54L148.653 190.172H149.677V201.5ZM159.88 198.316C159.88 197.985 159.821 197.681 159.704 197.404C159.587 197.116 159.421 196.871 159.208 196.668C159.005 196.455 158.749 196.289 158.44 196.172C158.141 196.055 157.811 195.996 157.448 195.996C157.075 195.996 156.739 196.055 156.44 196.172C156.141 196.289 155.885 196.455 155.672 196.668C155.469 196.871 155.309 197.116 155.192 197.404C155.075 197.681 155.016 197.985 155.016 198.316C155.016 198.647 155.075 198.956 155.192 199.244C155.309 199.521 155.469 199.767 155.672 199.98C155.885 200.183 156.141 200.343 156.44 200.46C156.739 200.577 157.075 200.636 157.448 200.636C157.811 200.636 158.141 200.577 158.44 200.46C158.749 200.343 159.005 200.183 159.208 199.98C159.421 199.767 159.587 199.521 159.704 199.244C159.821 198.956 159.88 198.647 159.88 198.316ZM159.464 193.036C159.464 192.748 159.411 192.481 159.304 192.236C159.208 191.991 159.069 191.783 158.888 191.612C158.707 191.431 158.493 191.292 158.248 191.196C158.003 191.089 157.736 191.036 157.448 191.036C157.16 191.036 156.893 191.089 156.648 191.196C156.403 191.292 156.189 191.431 156.008 191.612C155.827 191.783 155.683 191.991 155.576 192.236C155.48 192.481 155.432 192.748 155.432 193.036C155.432 193.324 155.48 193.591 155.576 193.836C155.683 194.081 155.827 194.295 156.008 194.476C156.189 194.647 156.403 194.785 156.648 194.892C156.893 194.988 157.16 195.036 157.448 195.036C157.736 195.036 158.003 194.988 158.248 194.892C158.493 194.785 158.707 194.647 158.888 194.476C159.069 194.295 159.208 194.081 159.304 193.836C159.411 193.591 159.464 193.324 159.464 193.036ZM155.976 195.468C155.731 195.383 155.501 195.26 155.288 195.1C155.085 194.929 154.909 194.732 154.76 194.508C154.611 194.284 154.493 194.039 154.408 193.772C154.323 193.505 154.28 193.228 154.28 192.94C154.28 192.492 154.365 192.087 154.536 191.724C154.707 191.351 154.936 191.036 155.224 190.78C155.512 190.524 155.848 190.327 156.232 190.188C156.616 190.049 157.021 189.98 157.448 189.98C157.875 189.98 158.28 190.049 158.664 190.188C159.048 190.327 159.384 190.524 159.672 190.78C159.96 191.036 160.189 191.351 160.36 191.724C160.531 192.087 160.616 192.492 160.616 192.94C160.616 193.228 160.573 193.505 160.488 193.772C160.403 194.039 160.285 194.284 160.136 194.508C159.987 194.732 159.805 194.929 159.592 195.1C159.389 195.26 159.165 195.383 158.92 195.468V195.5C159.56 195.671 160.072 196.023 160.456 196.556C160.84 197.089 161.032 197.729 161.032 198.476C161.032 198.967 160.931 199.409 160.728 199.804C160.536 200.199 160.275 200.54 159.944 200.828C159.624 201.105 159.245 201.319 158.808 201.468C158.381 201.617 157.928 201.692 157.448 201.692C156.968 201.692 156.509 201.617 156.072 201.468C155.645 201.319 155.267 201.105 154.936 200.828C154.616 200.54 154.355 200.199 154.152 199.804C153.96 199.409 153.864 198.967 153.864 198.476C153.864 197.729 154.056 197.089 154.44 196.556C154.824 196.023 155.336 195.671 155.976 195.5V195.468Z" fill="#4A5660"/>
<rect x="176" y="180" width="30" height="30" rx="15" fill="#204169"/>
<path d="M187.677 201.5H186.525V191.612L184.493 193.404L183.773 192.54L186.653 190.172H187.677V201.5ZM197.976 193.484C197.976 193.121 197.912 192.791 197.784 192.492C197.667 192.193 197.496 191.937 197.272 191.724C197.048 191.511 196.781 191.345 196.472 191.228C196.163 191.1 195.821 191.036 195.448 191.036C195.075 191.036 194.733 191.1 194.424 191.228C194.115 191.345 193.848 191.511 193.624 191.724C193.4 191.937 193.224 192.193 193.096 192.492C192.979 192.791 192.92 193.121 192.92 193.484C192.92 193.847 192.979 194.177 193.096 194.476C193.224 194.775 193.4 195.036 193.624 195.26C193.848 195.473 194.115 195.639 194.424 195.756C194.733 195.873 195.075 195.932 195.448 195.932C195.821 195.932 196.163 195.873 196.472 195.756C196.781 195.639 197.048 195.473 197.272 195.26C197.496 195.036 197.667 194.775 197.784 194.476C197.912 194.177 197.976 193.847 197.976 193.484ZM196.824 196.636L196.792 196.604C196.611 196.732 196.365 196.828 196.056 196.892C195.757 196.956 195.48 196.988 195.224 196.988C194.733 196.988 194.275 196.903 193.848 196.732C193.432 196.551 193.069 196.305 192.76 195.996C192.451 195.687 192.205 195.319 192.024 194.892C191.853 194.465 191.768 193.996 191.768 193.484C191.768 192.961 191.859 192.487 192.04 192.06C192.221 191.633 192.477 191.265 192.808 190.956C193.139 190.647 193.528 190.407 193.976 190.236C194.424 190.065 194.915 189.98 195.448 189.98C195.981 189.98 196.472 190.065 196.92 190.236C197.368 190.407 197.757 190.647 198.088 190.956C198.419 191.265 198.675 191.633 198.856 192.06C199.037 192.487 199.128 192.961 199.128 193.484C199.128 194.113 199.032 194.663 198.84 195.132C198.659 195.601 198.429 196.065 198.152 196.524L195.096 201.5H193.736L196.824 196.636Z" fill="white"/>
<path d="M228.077 201.5H220.877V200.172L225.389 195.58C225.56 195.409 225.731 195.228 225.901 195.036C226.072 194.844 226.227 194.641 226.365 194.428C226.504 194.215 226.616 193.991 226.701 193.756C226.787 193.521 226.829 193.276 226.829 193.02C226.829 192.711 226.771 192.433 226.653 192.188C226.547 191.943 226.392 191.735 226.189 191.564C225.987 191.393 225.752 191.265 225.485 191.18C225.219 191.084 224.936 191.036 224.637 191.036C224.061 191.036 223.571 191.196 223.165 191.516C222.76 191.836 222.499 192.268 222.381 192.812L221.165 192.684C221.325 191.841 221.709 191.18 222.317 190.7C222.936 190.22 223.683 189.98 224.557 189.98C225.016 189.98 225.448 190.044 225.853 190.172C226.269 190.289 226.632 190.471 226.941 190.716C227.261 190.961 227.512 191.271 227.693 191.644C227.885 192.007 227.981 192.433 227.981 192.924C227.981 193.361 227.912 193.761 227.773 194.124C227.645 194.487 227.475 194.828 227.261 195.148C227.048 195.468 226.803 195.772 226.525 196.06C226.259 196.348 225.981 196.631 225.693 196.908L222.125 200.444H228.077V201.5ZM233.448 191.036C232.829 191.036 232.339 191.201 231.976 191.532C231.624 191.863 231.357 192.273 231.176 192.764C230.995 193.255 230.877 193.777 230.824 194.332C230.781 194.887 230.76 195.388 230.76 195.836C230.76 196.284 230.781 196.785 230.824 197.34C230.877 197.895 230.995 198.417 231.176 198.908C231.357 199.399 231.624 199.809 231.976 200.14C232.339 200.471 232.829 200.636 233.448 200.636C234.067 200.636 234.552 200.471 234.904 200.14C235.267 199.809 235.539 199.399 235.72 198.908C235.901 198.417 236.013 197.895 236.056 197.34C236.109 196.785 236.136 196.284 236.136 195.836C236.136 195.388 236.109 194.887 236.056 194.332C236.013 193.777 235.901 193.255 235.72 192.764C235.539 192.273 235.267 191.863 234.904 191.532C234.552 191.201 234.067 191.036 233.448 191.036ZM233.448 189.98C234.259 189.98 234.915 190.167 235.416 190.54C235.917 190.913 236.307 191.388 236.584 191.964C236.861 192.54 237.048 193.175 237.144 193.868C237.24 194.551 237.288 195.207 237.288 195.836C237.288 196.465 237.24 197.127 237.144 197.82C237.048 198.503 236.861 199.132 236.584 199.708C236.307 200.284 235.917 200.759 235.416 201.132C234.915 201.505 234.259 201.692 233.448 201.692C232.637 201.692 231.981 201.505 231.48 201.132C230.979 200.759 230.589 200.284 230.312 199.708C230.035 199.132 229.848 198.503 229.752 197.82C229.656 197.127 229.608 196.465 229.608 195.836C229.608 195.207 229.656 194.551 229.752 193.868C229.848 193.175 230.035 192.54 230.312 191.964C230.589 191.388 230.979 190.913 231.48 190.54C231.981 190.167 232.637 189.98 233.448 189.98Z" fill="#4A5660"/>
<path d="M266.077 201.5H258.877V200.172L263.389 195.58C263.56 195.409 263.731 195.228 263.901 195.036C264.072 194.844 264.227 194.641 264.365 194.428C264.504 194.215 264.616 193.991 264.701 193.756C264.787 193.521 264.829 193.276 264.829 193.02C264.829 192.711 264.771 192.433 264.653 192.188C264.547 191.943 264.392 191.735 264.189 191.564C263.987 191.393 263.752 191.265 263.485 191.18C263.219 191.084 262.936 191.036 262.637 191.036C262.061 191.036 261.571 191.196 261.165 191.516C260.76 191.836 260.499 192.268 260.381 192.812L259.165 192.684C259.325 191.841 259.709 191.18 260.317 190.7C260.936 190.22 261.683 189.98 262.557 189.98C263.016 189.98 263.448 190.044 263.853 190.172C264.269 190.289 264.632 190.471 264.941 190.716C265.261 190.961 265.512 191.271 265.693 191.644C265.885 192.007 265.981 192.433 265.981 192.924C265.981 193.361 265.912 193.761 265.773 194.124C265.645 194.487 265.475 194.828 265.261 195.148C265.048 195.468 264.803 195.772 264.525 196.06C264.259 196.348 263.981 196.631 263.693 196.908L260.125 200.444H266.077V201.5ZM272.568 201.5H271.416V191.612L269.384 193.404L268.664 192.54L271.544 190.172H272.568V201.5Z" fill="#4A5660"/>
<path d="M38.0774 239.5H30.8774V238.172L35.3894 233.58C35.56 233.409 35.7307 233.228 35.9014 233.036C36.072 232.844 36.2267 232.641 36.3654 232.428C36.504 232.215 36.616 231.991 36.7014 231.756C36.7867 231.521 36.8294 231.276 36.8294 231.02C36.8294 230.711 36.7707 230.433 36.6534 230.188C36.5467 229.943 36.392 229.735 36.1894 229.564C35.9867 229.393 35.752 229.265 35.4854 229.18C35.2187 229.084 34.936 229.036 34.6374 229.036C34.0614 229.036 33.5707 229.196 33.1654 229.516C32.76 229.836 32.4987 230.268 32.3814 230.812L31.1654 230.684C31.3254 229.841 31.7094 229.18 32.3174 228.7C32.936 228.22 33.6827 227.98 34.5574 227.98C35.016 227.98 35.448 228.044 35.8534 228.172C36.2694 228.289 36.632 228.471 36.9414 228.716C37.2614 228.961 37.512 229.271 37.6934 229.644C37.8854 230.007 37.9814 230.433 37.9814 230.924C37.9814 231.361 37.912 231.761 37.7734 232.124C37.6454 232.487 37.4747 232.828 37.2614 233.148C37.048 233.468 36.8027 233.772 36.5254 234.06C36.2587 234.348 35.9814 234.631 35.6934 234.908L32.1254 238.444H38.0774V239.5ZM46.968 239.5H39.768V238.172L44.28 233.58C44.4507 233.409 44.6213 233.228 44.792 233.036C44.9627 232.844 45.1173 232.641 45.256 232.428C45.3947 232.215 45.5067 231.991 45.592 231.756C45.6773 231.521 45.72 231.276 45.72 231.02C45.72 230.711 45.6613 230.433 45.544 230.188C45.4373 229.943 45.2827 229.735 45.08 229.564C44.8773 229.393 44.6427 229.265 44.376 229.18C44.1093 229.084 43.8267 229.036 43.528 229.036C42.952 229.036 42.4613 229.196 42.056 229.516C41.6507 229.836 41.3893 230.268 41.272 230.812L40.056 230.684C40.216 229.841 40.6 229.18 41.208 228.7C41.8267 228.22 42.5733 227.98 43.448 227.98C43.9067 227.98 44.3387 228.044 44.744 228.172C45.16 228.289 45.5227 228.471 45.832 228.716C46.152 228.961 46.4027 229.271 46.584 229.644C46.776 230.007 46.872 230.433 46.872 230.924C46.872 231.361 46.8027 231.761 46.664 232.124C46.536 232.487 46.3653 232.828 46.152 233.148C45.9387 233.468 45.6933 233.772 45.416 234.06C45.1493 234.348 44.872 234.631 44.584 234.908L41.016 238.444H46.968V239.5Z" fill="#4A5660"/>
<path d="M76.0774 239.5H68.8774V238.172L73.3894 233.58C73.56 233.409 73.7307 233.228 73.9014 233.036C74.072 232.844 74.2267 232.641 74.3654 232.428C74.504 232.215 74.616 231.991 74.7014 231.756C74.7867 231.521 74.8294 231.276 74.8294 231.02C74.8294 230.711 74.7707 230.433 74.6534 230.188C74.5467 229.943 74.392 229.735 74.1894 229.564C73.9867 229.393 73.752 229.265 73.4854 229.18C73.2187 229.084 72.936 229.036 72.6374 229.036C72.0614 229.036 71.5707 229.196 71.1654 229.516C70.76 229.836 70.4987 230.268 70.3814 230.812L69.1654 230.684C69.3254 229.841 69.7094 229.18 70.3174 228.7C70.936 228.22 71.6827 227.98 72.5574 227.98C73.016 227.98 73.448 228.044 73.8534 228.172C74.2694 228.289 74.632 228.471 74.9414 228.716C75.2614 228.961 75.512 229.271 75.6934 229.644C75.8854 230.007 75.9814 230.433 75.9814 230.924C75.9814 231.361 75.912 231.761 75.7734 232.124C75.6454 232.487 75.4747 232.828 75.2614 233.148C75.048 233.468 74.8027 233.772 74.5254 234.06C74.2587 234.348 73.9814 234.631 73.6934 234.908L70.1254 238.444H76.0774V239.5ZM80.264 233.036H80.856C81.1867 233.036 81.5013 232.999 81.8 232.924C82.1093 232.849 82.376 232.732 82.6 232.572C82.824 232.401 83 232.183 83.128 231.916C83.2667 231.649 83.336 231.329 83.336 230.956C83.336 230.348 83.1493 229.879 82.776 229.548C82.4133 229.207 81.9013 229.036 81.24 229.036C80.76 229.036 80.3387 229.143 79.976 229.356C79.6133 229.569 79.3147 229.879 79.08 230.284L78.072 229.772C78.4133 229.164 78.8453 228.716 79.368 228.428C79.9013 228.129 80.5147 227.98 81.208 227.98C81.656 227.98 82.0773 228.044 82.472 228.172C82.8667 228.3 83.2133 228.492 83.512 228.748C83.8107 228.993 84.0453 229.303 84.216 229.676C84.3973 230.039 84.488 230.455 84.488 230.924C84.488 231.233 84.4347 231.527 84.328 231.804C84.232 232.081 84.0933 232.332 83.912 232.556C83.7413 232.78 83.5387 232.977 83.304 233.148C83.0693 233.308 82.824 233.431 82.568 233.516L82.616 233.548C82.936 233.612 83.2293 233.735 83.496 233.916C83.7627 234.087 83.992 234.3 84.184 234.556C84.376 234.812 84.5253 235.1 84.632 235.42C84.7387 235.74 84.792 236.076 84.792 236.428C84.792 236.951 84.696 237.415 84.504 237.82C84.312 238.225 84.0507 238.567 83.72 238.844C83.3893 239.121 83.0053 239.335 82.568 239.484C82.1307 239.623 81.6667 239.692 81.176 239.692C80.344 239.692 79.6187 239.511 79 239.148C78.3813 238.785 77.9173 238.204 77.608 237.404L78.824 237.036C79.016 237.58 79.2987 237.985 79.672 238.252C80.056 238.508 80.5893 238.636 81.272 238.636C81.592 238.636 81.896 238.583 82.184 238.476C82.472 238.369 82.7227 238.22 82.936 238.028C83.16 237.825 83.3307 237.585 83.448 237.308C83.576 237.031 83.64 236.727 83.64 236.396C83.64 235.969 83.56 235.612 83.4 235.324C83.24 235.025 83.0267 234.785 82.76 234.604C82.4933 234.423 82.184 234.295 81.832 234.22C81.4907 234.135 81.1333 234.092 80.76 234.092H80.264V233.036Z" fill="#4A5660"/>
<path d="M114.077 239.5H106.877V238.172L111.389 233.58C111.56 233.409 111.731 233.228 111.901 233.036C112.072 232.844 112.227 232.641 112.365 232.428C112.504 232.215 112.616 231.991 112.701 231.756C112.787 231.521 112.829 231.276 112.829 231.02C112.829 230.711 112.771 230.433 112.653 230.188C112.547 229.943 112.392 229.735 112.189 229.564C111.987 229.393 111.752 229.265 111.485 229.18C111.219 229.084 110.936 229.036 110.637 229.036C110.061 229.036 109.571 229.196 109.165 229.516C108.76 229.836 108.499 230.268 108.381 230.812L107.165 230.684C107.325 229.841 107.709 229.18 108.317 228.7C108.936 228.22 109.683 227.98 110.557 227.98C111.016 227.98 111.448 228.044 111.853 228.172C112.269 228.289 112.632 228.471 112.941 228.716C113.261 228.961 113.512 229.271 113.693 229.644C113.885 230.007 113.981 230.433 113.981 230.924C113.981 231.361 113.912 231.761 113.773 232.124C113.645 232.487 113.475 232.828 113.261 233.148C113.048 233.468 112.803 233.772 112.525 234.06C112.259 234.348 111.981 234.631 111.693 234.908L108.125 238.444H114.077V239.5ZM120.504 229.324H120.472L116.568 235.756H120.504V229.324ZM121.656 235.756H123.288V236.812H121.656V239.5H120.504V236.812H115.608V235.5L120.184 228.172H121.656V235.756Z" fill="#4A5660"/>
<path d="M152.077 239.5H144.877V238.172L149.389 233.58C149.56 233.409 149.731 233.228 149.901 233.036C150.072 232.844 150.227 232.641 150.365 232.428C150.504 232.215 150.616 231.991 150.701 231.756C150.787 231.521 150.829 231.276 150.829 231.02C150.829 230.711 150.771 230.433 150.653 230.188C150.547 229.943 150.392 229.735 150.189 229.564C149.987 229.393 149.752 229.265 149.485 229.18C149.219 229.084 148.936 229.036 148.637 229.036C148.061 229.036 147.571 229.196 147.165 229.516C146.76 229.836 146.499 230.268 146.381 230.812L145.165 230.684C145.325 229.841 145.709 229.18 146.317 228.7C146.936 228.22 147.683 227.98 148.557 227.98C149.016 227.98 149.448 228.044 149.853 228.172C150.269 228.289 150.632 228.471 150.941 228.716C151.261 228.961 151.512 229.271 151.693 229.644C151.885 230.007 151.981 230.433 151.981 230.924C151.981 231.361 151.912 231.761 151.773 232.124C151.645 232.487 151.475 232.828 151.261 233.148C151.048 233.468 150.803 233.772 150.525 234.06C150.259 234.348 149.981 234.631 149.693 234.908L146.125 238.444H152.077V239.5ZM160.44 229.228H155.8L155.736 232.636C155.981 232.54 156.232 232.471 156.488 232.428C156.744 232.385 157 232.364 157.256 232.364C157.789 232.364 158.275 232.455 158.712 232.636C159.149 232.817 159.523 233.073 159.832 233.404C160.152 233.724 160.397 234.108 160.568 234.556C160.749 234.993 160.84 235.473 160.84 235.996C160.84 236.54 160.744 237.041 160.552 237.5C160.36 237.948 160.093 238.337 159.752 238.668C159.411 238.988 159.005 239.239 158.536 239.42C158.077 239.601 157.576 239.692 157.032 239.692C156.317 239.692 155.672 239.521 155.096 239.18C154.52 238.839 154.077 238.337 153.768 237.676L154.904 237.18C155.117 237.628 155.416 237.985 155.8 238.252C156.184 238.508 156.627 238.636 157.128 238.636C157.491 238.636 157.827 238.572 158.136 238.444C158.445 238.305 158.712 238.124 158.936 237.9C159.171 237.676 159.352 237.409 159.48 237.1C159.619 236.791 159.688 236.46 159.688 236.108C159.688 235.713 159.619 235.351 159.48 235.02C159.341 234.689 159.149 234.407 158.904 234.172C158.659 233.927 158.365 233.74 158.024 233.612C157.683 233.484 157.309 233.42 156.904 233.42C156.499 233.42 156.093 233.479 155.688 233.596C155.293 233.703 154.915 233.852 154.552 234.044L154.664 228.172H160.44V229.228Z" fill="#4A5660"/>
<path d="M190.077 239.5H182.877V238.172L187.389 233.58C187.56 233.409 187.731 233.228 187.901 233.036C188.072 232.844 188.227 232.641 188.365 232.428C188.504 232.215 188.616 231.991 188.701 231.756C188.787 231.521 188.829 231.276 188.829 231.02C188.829 230.711 188.771 230.433 188.653 230.188C188.547 229.943 188.392 229.735 188.189 229.564C187.987 229.393 187.752 229.265 187.485 229.18C187.219 229.084 186.936 229.036 186.637 229.036C186.061 229.036 185.571 229.196 185.165 229.516C184.76 229.836 184.499 230.268 184.381 230.812L183.165 230.684C183.325 229.841 183.709 229.18 184.317 228.7C184.936 228.22 185.683 227.98 186.557 227.98C187.016 227.98 187.448 228.044 187.853 228.172C188.269 228.289 188.632 228.471 188.941 228.716C189.261 228.961 189.512 229.271 189.693 229.644C189.885 230.007 189.981 230.433 189.981 230.924C189.981 231.361 189.912 231.761 189.773 232.124C189.645 232.487 189.475 232.828 189.261 233.148C189.048 233.468 188.803 233.772 188.525 234.06C188.259 234.348 187.981 234.631 187.693 234.908L184.125 238.444H190.077V239.5ZM192.92 236.188C192.92 236.551 192.979 236.881 193.096 237.18C193.224 237.479 193.4 237.74 193.624 237.964C193.848 238.177 194.115 238.343 194.424 238.46C194.733 238.577 195.075 238.636 195.448 238.636C195.821 238.636 196.163 238.577 196.472 238.46C196.781 238.343 197.048 238.177 197.272 237.964C197.496 237.74 197.667 237.479 197.784 237.18C197.912 236.881 197.976 236.551 197.976 236.188C197.976 235.825 197.912 235.495 197.784 235.196C197.667 234.897 197.496 234.641 197.272 234.428C197.048 234.215 196.781 234.049 196.472 233.932C196.163 233.804 195.821 233.74 195.448 233.74C195.075 233.74 194.733 233.804 194.424 233.932C194.115 234.049 193.848 234.215 193.624 234.428C193.4 234.641 193.224 234.897 193.096 235.196C192.979 235.495 192.92 235.825 192.92 236.188ZM194.072 233.036L194.104 233.068C194.285 232.94 194.525 232.844 194.824 232.78C195.133 232.716 195.416 232.684 195.672 232.684C196.163 232.684 196.616 232.775 197.032 232.956C197.459 233.127 197.827 233.367 198.136 233.676C198.445 233.985 198.685 234.353 198.856 234.78C199.037 235.207 199.128 235.676 199.128 236.188C199.128 236.711 199.037 237.185 198.856 237.612C198.675 238.039 198.419 238.407 198.088 238.716C197.757 239.025 197.368 239.265 196.92 239.436C196.472 239.607 195.981 239.692 195.448 239.692C194.915 239.692 194.424 239.607 193.976 239.436C193.528 239.265 193.139 239.025 192.808 238.716C192.477 238.407 192.221 238.039 192.04 237.612C191.859 237.185 191.768 236.711 191.768 236.188C191.768 235.559 191.859 235.009 192.04 234.54C192.232 234.071 192.467 233.607 192.744 233.148L195.8 228.172H197.16L194.072 233.036Z" fill="#4A5660"/>
<path d="M228.077 239.5H220.877V238.172L225.389 233.58C225.56 233.409 225.731 233.228 225.901 233.036C226.072 232.844 226.227 232.641 226.365 232.428C226.504 232.215 226.616 231.991 226.701 231.756C226.787 231.521 226.829 231.276 226.829 231.02C226.829 230.711 226.771 230.433 226.653 230.188C226.547 229.943 226.392 229.735 226.189 229.564C225.987 229.393 225.752 229.265 225.485 229.18C225.219 229.084 224.936 229.036 224.637 229.036C224.061 229.036 223.571 229.196 223.165 229.516C222.76 229.836 222.499 230.268 222.381 230.812L221.165 230.684C221.325 229.841 221.709 229.18 222.317 228.7C222.936 228.22 223.683 227.98 224.557 227.98C225.016 227.98 225.448 228.044 225.853 228.172C226.269 228.289 226.632 228.471 226.941 228.716C227.261 228.961 227.512 229.271 227.693 229.644C227.885 230.007 227.981 230.433 227.981 230.924C227.981 231.361 227.912 231.761 227.773 232.124C227.645 232.487 227.475 232.828 227.261 233.148C227.048 233.468 226.803 233.772 226.525 234.06C226.259 234.348 225.981 234.631 225.693 234.908L222.125 238.444H228.077V239.5ZM236.584 229.228L232.024 239.5H230.728L235.384 229.228H229.864V228.172H236.584V229.228Z" fill="#4A5660"/>
<path d="M266.077 239.5H258.877V238.172L263.389 233.58C263.56 233.409 263.731 233.228 263.901 233.036C264.072 232.844 264.227 232.641 264.365 232.428C264.504 232.215 264.616 231.991 264.701 231.756C264.787 231.521 264.829 231.276 264.829 231.02C264.829 230.711 264.771 230.433 264.653 230.188C264.547 229.943 264.392 229.735 264.189 229.564C263.987 229.393 263.752 229.265 263.485 229.18C263.219 229.084 262.936 229.036 262.637 229.036C262.061 229.036 261.571 229.196 261.165 229.516C260.76 229.836 260.499 230.268 260.381 230.812L259.165 230.684C259.325 229.841 259.709 229.18 260.317 228.7C260.936 228.22 261.683 227.98 262.557 227.98C263.016 227.98 263.448 228.044 263.853 228.172C264.269 228.289 264.632 228.471 264.941 228.716C265.261 228.961 265.512 229.271 265.693 229.644C265.885 230.007 265.981 230.433 265.981 230.924C265.981 231.361 265.912 231.761 265.773 232.124C265.645 232.487 265.475 232.828 265.261 233.148C265.048 233.468 264.803 233.772 264.525 234.06C264.259 234.348 263.981 234.631 263.693 234.908L260.125 238.444H266.077V239.5ZM273.88 236.316C273.88 235.985 273.821 235.681 273.704 235.404C273.587 235.116 273.421 234.871 273.208 234.668C273.005 234.455 272.749 234.289 272.44 234.172C272.141 234.055 271.811 233.996 271.448 233.996C271.075 233.996 270.739 234.055 270.44 234.172C270.141 234.289 269.885 234.455 269.672 234.668C269.469 234.871 269.309 235.116 269.192 235.404C269.075 235.681 269.016 235.985 269.016 236.316C269.016 236.647 269.075 236.956 269.192 237.244C269.309 237.521 269.469 237.767 269.672 237.98C269.885 238.183 270.141 238.343 270.44 238.46C270.739 238.577 271.075 238.636 271.448 238.636C271.811 238.636 272.141 238.577 272.44 238.46C272.749 238.343 273.005 238.183 273.208 237.98C273.421 237.767 273.587 237.521 273.704 237.244C273.821 236.956 273.88 236.647 273.88 236.316ZM273.464 231.036C273.464 230.748 273.411 230.481 273.304 230.236C273.208 229.991 273.069 229.783 272.888 229.612C272.707 229.431 272.493 229.292 272.248 229.196C272.003 229.089 271.736 229.036 271.448 229.036C271.16 229.036 270.893 229.089 270.648 229.196C270.403 229.292 270.189 229.431 270.008 229.612C269.827 229.783 269.683 229.991 269.576 230.236C269.48 230.481 269.432 230.748 269.432 231.036C269.432 231.324 269.48 231.591 269.576 231.836C269.683 232.081 269.827 232.295 270.008 232.476C270.189 232.647 270.403 232.785 270.648 232.892C270.893 232.988 271.16 233.036 271.448 233.036C271.736 233.036 272.003 232.988 272.248 232.892C272.493 232.785 272.707 232.647 272.888 232.476C273.069 232.295 273.208 232.081 273.304 231.836C273.411 231.591 273.464 231.324 273.464 231.036ZM269.976 233.468C269.731 233.383 269.501 233.26 269.288 233.1C269.085 232.929 268.909 232.732 268.76 232.508C268.611 232.284 268.493 232.039 268.408 231.772C268.323 231.505 268.28 231.228 268.28 230.94C268.28 230.492 268.365 230.087 268.536 229.724C268.707 229.351 268.936 229.036 269.224 228.78C269.512 228.524 269.848 228.327 270.232 228.188C270.616 228.049 271.021 227.98 271.448 227.98C271.875 227.98 272.28 228.049 272.664 228.188C273.048 228.327 273.384 228.524 273.672 228.78C273.96 229.036 274.189 229.351 274.36 229.724C274.531 230.087 274.616 230.492 274.616 230.94C274.616 231.228 274.573 231.505 274.488 231.772C274.403 232.039 274.285 232.284 274.136 232.508C273.987 232.732 273.805 232.929 273.592 233.1C273.389 233.26 273.165 233.383 272.92 233.468V233.5C273.56 233.671 274.072 234.023 274.456 234.556C274.84 235.089 275.032 235.729 275.032 236.476C275.032 236.967 274.931 237.409 274.728 237.804C274.536 238.199 274.275 238.54 273.944 238.828C273.624 239.105 273.245 239.319 272.808 239.468C272.381 239.617 271.928 239.692 271.448 239.692C270.968 239.692 270.509 239.617 270.072 239.468C269.645 239.319 269.267 239.105 268.936 238.828C268.616 238.54 268.355 238.199 268.152 237.804C267.96 237.409 267.864 236.967 267.864 236.476C267.864 235.729 268.056 235.089 268.44 234.556C268.824 234.023 269.336 233.671 269.976 233.5V233.468Z" fill="#4A5660"/>
<path d="M38.0774 277.5H30.8774V276.172L35.3894 271.58C35.56 271.409 35.7307 271.228 35.9014 271.036C36.072 270.844 36.2267 270.641 36.3654 270.428C36.504 270.215 36.616 269.991 36.7014 269.756C36.7867 269.521 36.8294 269.276 36.8294 269.02C36.8294 268.711 36.7707 268.433 36.6534 268.188C36.5467 267.943 36.392 267.735 36.1894 267.564C35.9867 267.393 35.752 267.265 35.4854 267.18C35.2187 267.084 34.936 267.036 34.6374 267.036C34.0614 267.036 33.5707 267.196 33.1654 267.516C32.76 267.836 32.4987 268.268 32.3814 268.812L31.1654 268.684C31.3254 267.841 31.7094 267.18 32.3174 266.7C32.936 266.22 33.6827 265.98 34.5574 265.98C35.016 265.98 35.448 266.044 35.8534 266.172C36.2694 266.289 36.632 266.471 36.9414 266.716C37.2614 266.961 37.512 267.271 37.6934 267.644C37.8854 268.007 37.9814 268.433 37.9814 268.924C37.9814 269.361 37.912 269.761 37.7734 270.124C37.6454 270.487 37.4747 270.828 37.2614 271.148C37.048 271.468 36.8027 271.772 36.5254 272.06C36.2587 272.348 35.9814 272.631 35.6934 272.908L32.1254 276.444H38.0774V277.5ZM45.976 269.484C45.976 269.121 45.912 268.791 45.784 268.492C45.6667 268.193 45.496 267.937 45.272 267.724C45.048 267.511 44.7813 267.345 44.472 267.228C44.1627 267.1 43.8213 267.036 43.448 267.036C43.0747 267.036 42.7333 267.1 42.424 267.228C42.1147 267.345 41.848 267.511 41.624 267.724C41.4 267.937 41.224 268.193 41.096 268.492C40.9787 268.791 40.92 269.121 40.92 269.484C40.92 269.847 40.9787 270.177 41.096 270.476C41.224 270.775 41.4 271.036 41.624 271.26C41.848 271.473 42.1147 271.639 42.424 271.756C42.7333 271.873 43.0747 271.932 43.448 271.932C43.8213 271.932 44.1627 271.873 44.472 271.756C44.7813 271.639 45.048 271.473 45.272 271.26C45.496 271.036 45.6667 270.775 45.784 270.476C45.912 270.177 45.976 269.847 45.976 269.484ZM44.824 272.636L44.792 272.604C44.6107 272.732 44.3653 272.828 44.056 272.892C43.7573 272.956 43.48 272.988 43.224 272.988C42.7333 272.988 42.2747 272.903 41.848 272.732C41.432 272.551 41.0693 272.305 40.76 271.996C40.4507 271.687 40.2053 271.319 40.024 270.892C39.8533 270.465 39.768 269.996 39.768 269.484C39.768 268.961 39.8587 268.487 40.04 268.06C40.2213 267.633 40.4773 267.265 40.808 266.956C41.1387 266.647 41.528 266.407 41.976 266.236C42.424 266.065 42.9147 265.98 43.448 265.98C43.9813 265.98 44.472 266.065 44.92 266.236C45.368 266.407 45.7573 266.647 46.088 266.956C46.4187 267.265 46.6747 267.633 46.856 268.06C47.0373 268.487 47.128 268.961 47.128 269.484C47.128 270.113 47.032 270.663 46.84 271.132C46.6587 271.601 46.4293 272.065 46.152 272.524L43.096 277.5H41.736L44.824 272.636Z" fill="#4A5660"/>
<path d="M71.3734 271.036H71.9654C72.296 271.036 72.6107 270.999 72.9094 270.924C73.2187 270.849 73.4854 270.732 73.7094 270.572C73.9334 270.401 74.1094 270.183 74.2374 269.916C74.376 269.649 74.4454 269.329 74.4454 268.956C74.4454 268.348 74.2587 267.879 73.8854 267.548C73.5227 267.207 73.0107 267.036 72.3494 267.036C71.8694 267.036 71.448 267.143 71.0854 267.356C70.7227 267.569 70.424 267.879 70.1894 268.284L69.1814 267.772C69.5227 267.164 69.9547 266.716 70.4774 266.428C71.0107 266.129 71.624 265.98 72.3174 265.98C72.7654 265.98 73.1867 266.044 73.5814 266.172C73.976 266.3 74.3227 266.492 74.6214 266.748C74.92 266.993 75.1547 267.303 75.3254 267.676C75.5067 268.039 75.5974 268.455 75.5974 268.924C75.5974 269.233 75.544 269.527 75.4374 269.804C75.3414 270.081 75.2027 270.332 75.0214 270.556C74.8507 270.78 74.648 270.977 74.4134 271.148C74.1787 271.308 73.9334 271.431 73.6774 271.516L73.7254 271.548C74.0454 271.612 74.3387 271.735 74.6054 271.916C74.872 272.087 75.1014 272.3 75.2934 272.556C75.4854 272.812 75.6347 273.1 75.7414 273.42C75.848 273.74 75.9014 274.076 75.9014 274.428C75.9014 274.951 75.8054 275.415 75.6134 275.82C75.4214 276.225 75.16 276.567 74.8294 276.844C74.4987 277.121 74.1147 277.335 73.6774 277.484C73.24 277.623 72.776 277.692 72.2854 277.692C71.4534 277.692 70.728 277.511 70.1094 277.148C69.4907 276.785 69.0267 276.204 68.7174 275.404L69.9334 275.036C70.1254 275.58 70.408 275.985 70.7814 276.252C71.1654 276.508 71.6987 276.636 72.3814 276.636C72.7014 276.636 73.0054 276.583 73.2934 276.476C73.5814 276.369 73.832 276.22 74.0454 276.028C74.2694 275.825 74.44 275.585 74.5574 275.308C74.6854 275.031 74.7494 274.727 74.7494 274.396C74.7494 273.969 74.6694 273.612 74.5094 273.324C74.3494 273.025 74.136 272.785 73.8694 272.604C73.6027 272.423 73.2934 272.295 72.9414 272.22C72.6 272.135 72.2427 272.092 71.8694 272.092H71.3734V271.036ZM81.448 267.036C80.8293 267.036 80.3387 267.201 79.976 267.532C79.624 267.863 79.3573 268.273 79.176 268.764C78.9947 269.255 78.8773 269.777 78.824 270.332C78.7813 270.887 78.76 271.388 78.76 271.836C78.76 272.284 78.7813 272.785 78.824 273.34C78.8773 273.895 78.9947 274.417 79.176 274.908C79.3573 275.399 79.624 275.809 79.976 276.14C80.3387 276.471 80.8293 276.636 81.448 276.636C82.0667 276.636 82.552 276.471 82.904 276.14C83.2667 275.809 83.5387 275.399 83.72 274.908C83.9013 274.417 84.0133 273.895 84.056 273.34C84.1093 272.785 84.136 272.284 84.136 271.836C84.136 271.388 84.1093 270.887 84.056 270.332C84.0133 269.777 83.9013 269.255 83.72 268.764C83.5387 268.273 83.2667 267.863 82.904 267.532C82.552 267.201 82.0667 267.036 81.448 267.036ZM81.448 265.98C82.2587 265.98 82.9147 266.167 83.416 266.54C83.9173 266.913 84.3067 267.388 84.584 267.964C84.8613 268.54 85.048 269.175 85.144 269.868C85.24 270.551 85.288 271.207 85.288 271.836C85.288 272.465 85.24 273.127 85.144 273.82C85.048 274.503 84.8613 275.132 84.584 275.708C84.3067 276.284 83.9173 276.759 83.416 277.132C82.9147 277.505 82.2587 277.692 81.448 277.692C80.6373 277.692 79.9813 277.505 79.48 277.132C78.9787 276.759 78.5893 276.284 78.312 275.708C78.0347 275.132 77.848 274.503 77.752 273.82C77.656 273.127 77.608 272.465 77.608 271.836C77.608 271.207 77.656 270.551 77.752 269.868C77.848 269.175 78.0347 268.54 78.312 267.964C78.5893 267.388 78.9787 266.913 79.48 266.54C79.9813 266.167 80.6373 265.98 81.448 265.98Z" fill="#4A5660"/>
<path d="M109.373 271.036H109.965C110.296 271.036 110.611 270.999 110.909 270.924C111.219 270.849 111.485 270.732 111.709 270.572C111.933 270.401 112.109 270.183 112.237 269.916C112.376 269.649 112.445 269.329 112.445 268.956C112.445 268.348 112.259 267.879 111.885 267.548C111.523 267.207 111.011 267.036 110.349 267.036C109.869 267.036 109.448 267.143 109.085 267.356C108.723 267.569 108.424 267.879 108.189 268.284L107.181 267.772C107.523 267.164 107.955 266.716 108.477 266.428C109.011 266.129 109.624 265.98 110.317 265.98C110.765 265.98 111.187 266.044 111.581 266.172C111.976 266.3 112.323 266.492 112.621 266.748C112.92 266.993 113.155 267.303 113.325 267.676C113.507 268.039 113.597 268.455 113.597 268.924C113.597 269.233 113.544 269.527 113.437 269.804C113.341 270.081 113.203 270.332 113.021 270.556C112.851 270.78 112.648 270.977 112.413 271.148C112.179 271.308 111.933 271.431 111.677 271.516L111.725 271.548C112.045 271.612 112.339 271.735 112.605 271.916C112.872 272.087 113.101 272.3 113.293 272.556C113.485 272.812 113.635 273.1 113.741 273.42C113.848 273.74 113.901 274.076 113.901 274.428C113.901 274.951 113.805 275.415 113.613 275.82C113.421 276.225 113.16 276.567 112.829 276.844C112.499 277.121 112.115 277.335 111.677 277.484C111.24 277.623 110.776 277.692 110.285 277.692C109.453 277.692 108.728 277.511 108.109 277.148C107.491 276.785 107.027 276.204 106.717 275.404L107.933 275.036C108.125 275.58 108.408 275.985 108.781 276.252C109.165 276.508 109.699 276.636 110.381 276.636C110.701 276.636 111.005 276.583 111.293 276.476C111.581 276.369 111.832 276.22 112.045 276.028C112.269 275.825 112.44 275.585 112.557 275.308C112.685 275.031 112.749 274.727 112.749 274.396C112.749 273.969 112.669 273.612 112.509 273.324C112.349 273.025 112.136 272.785 111.869 272.604C111.603 272.423 111.293 272.295 110.941 272.22C110.6 272.135 110.243 272.092 109.869 272.092H109.373V271.036ZM120.568 277.5H119.416V267.612L117.384 269.404L116.664 268.54L119.544 266.172H120.568V277.5Z" fill="#4A5660"/>
<defs>
<clipPath id="clip0_244_315">
<rect width="258" height="16" fill="white" transform="translate(24 24)"/>
</clipPath>
</defs>
</svg>
