<svg width="102" height="55" viewBox="0 0 102 55" fill="none" xmlns="http://www.w3.org/2000/svg">
<path fill-rule="evenodd" clip-rule="evenodd" d="M21 55L21 -4.37114e-08L22 0L22 55L21 55Z" fill="#204169"/>
<path fill-rule="evenodd" clip-rule="evenodd" d="M8.5 27.2477C8.5 17.9982 15.9982 10.5 25.2477 10.5C34.4972 10.5 41.9953 17.9982 41.9953 27.2477C41.9953 36.4972 34.4972 43.9953 25.2477 43.9953C15.9982 43.9953 8.5 36.4972 8.5 27.2477ZM25.2477 11.5C16.5505 11.5 9.5 18.5505 9.5 27.2477C9.5 35.9449 16.5505 42.9953 25.2477 42.9953C33.9449 42.9953 40.9953 35.9449 40.9953 27.2477C40.9953 18.5505 33.9449 11.5 25.2477 11.5Z" fill="#204169"/>
<path fill-rule="evenodd" clip-rule="evenodd" d="M0.5 27.2477C0.5 17.9982 7.99819 10.5 17.2477 10.5C26.4972 10.5 33.9953 17.9982 33.9953 27.2477C33.9953 36.4972 26.4972 43.9953 17.2477 43.9953C7.99819 43.9953 0.5 36.4972 0.5 27.2477ZM17.2477 11.5C8.55047 11.5 1.5 18.5505 1.5 27.2477C1.5 35.9449 8.55047 42.9953 17.2477 42.9953C25.9449 42.9953 32.9953 35.9449 32.9953 27.2477C32.9953 18.5505 25.9449 11.5 17.2477 11.5Z" fill="#204169"/>
<path d="M92.8452 33.668C91.4212 33.668 90.2372 34.612 90.0772 36.324H95.6132C95.6292 34.612 94.3492 33.668 92.8452 33.668ZM96.9412 38.644C96.4932 40.244 95.0852 41.492 92.9092 41.492C90.4132 41.492 88.5732 39.732 88.5732 36.948C88.5732 34.18 90.3492 32.436 92.9092 32.436C95.4532 32.436 97.1172 34.228 97.1172 36.628C97.1172 36.948 97.1012 37.204 97.0692 37.508H90.0612C90.1732 39.284 91.4212 40.26 92.9092 40.26C94.2212 40.26 95.0532 39.588 95.3732 38.644H96.9412Z" fill="#204169"/>
<path d="M85.2988 41.348V36.388C85.2988 34.596 84.3228 33.684 82.8508 33.684C81.3628 33.684 80.3388 34.612 80.3388 36.5V41.348H78.8828V32.58H80.3388V33.828C80.9148 32.916 81.9708 32.42 83.1548 32.42C85.1868 32.42 86.7388 33.668 86.7388 36.18V41.348H85.2988Z" fill="#204169"/>
<path d="M74.9456 41.348V32.58H76.4016V41.348H74.9456ZM75.6976 31.156C75.1376 31.156 74.7056 30.724 74.7056 30.164C74.7056 29.604 75.1376 29.172 75.6976 29.172C76.2256 29.172 76.6576 29.604 76.6576 30.164C76.6576 30.724 76.2256 31.156 75.6976 31.156Z" fill="#204169"/>
<path d="M71.0078 41.348V29.508H72.4638V41.348H71.0078Z" fill="#204169"/>
<path d="M67.1894 41.348V36.388C67.1894 34.596 66.2134 33.684 64.7414 33.684C63.2534 33.684 62.2294 34.612 62.2294 36.5V41.348H60.7734V32.58H62.2294V33.828C62.8054 32.916 63.8614 32.42 65.0454 32.42C67.0774 32.42 68.6294 33.668 68.6294 36.18V41.348H67.1894Z" fill="#204169"/>
<path d="M58.8591 36.948C58.8591 39.732 56.8591 41.492 54.3631 41.492C51.8831 41.492 49.9951 39.732 49.9951 36.948C49.9951 34.18 51.9471 32.436 54.4271 32.436C56.9231 32.436 58.8591 34.18 58.8591 36.948ZM51.4831 36.948C51.4831 39.172 52.8431 40.212 54.3631 40.212C55.8831 40.212 57.3711 39.172 57.3711 36.948C57.3711 34.74 55.9151 33.7 54.4111 33.7C52.8751 33.7 51.4831 34.74 51.4831 36.948Z" fill="#204169"/>
<path d="M93.0181 25.348V13.508H95.7541V17.62C96.2981 16.852 97.2741 16.324 98.5061 16.324C100.538 16.324 101.898 17.732 101.898 20.132V25.348H99.1781V20.5C99.1781 19.284 98.5061 18.612 97.4661 18.612C96.4261 18.612 95.7541 19.284 95.7541 20.5V25.348H93.0181Z" fill="#204169"/>
<path d="M86.9498 22.244V18.692H85.8618V16.42H86.9498V14.244H89.6858V16.42H91.4778V18.692H89.6858V22.276C89.6858 22.804 89.9098 23.028 90.5178 23.028H91.4938V25.348H90.1018C88.2458 25.348 86.9498 24.564 86.9498 22.244Z" fill="#204169"/>
<path d="M81.7993 25.348V13.508H84.5353V25.348H81.7993Z" fill="#204169"/>
<path d="M70.3955 20.868C70.3955 18.052 72.1395 16.292 74.3315 16.292C75.6595 16.292 76.6035 16.9 77.0835 17.684V16.42H79.8195V25.348H77.0835V24.084C76.5875 24.868 75.6435 25.476 74.3155 25.476C72.1395 25.476 70.3955 23.684 70.3955 20.868ZM77.0835 20.884C77.0835 19.46 76.1715 18.676 75.1315 18.676C74.1075 18.676 73.1795 19.444 73.1795 20.868C73.1795 22.292 74.1075 23.092 75.1315 23.092C76.1715 23.092 77.0835 22.308 77.0835 20.884Z" fill="#204169"/>
<path d="M65.0161 18.484C64.1201 18.484 63.4321 19.028 63.2721 20.02H66.6961C66.6961 19.044 65.9281 18.484 65.0161 18.484ZM69.2881 22.388C68.8561 24.132 67.2721 25.476 65.0481 25.476C62.4241 25.476 60.5361 23.716 60.5361 20.884C60.5361 18.052 62.3921 16.292 65.0481 16.292C67.6561 16.292 69.4961 18.02 69.4961 20.74C69.4961 20.996 69.4801 21.268 69.4481 21.54H63.2561C63.3521 22.708 64.0721 23.252 64.9521 23.252C65.7201 23.252 66.1521 22.868 66.3761 22.388H69.2881Z" fill="#204169"/>
<path d="M50.2993 25.348V13.508H53.0353V17.62C53.5793 16.852 54.5553 16.324 55.7873 16.324C57.8193 16.324 59.1793 17.732 59.1793 20.132V25.348H56.4593V20.5C56.4593 19.284 55.7873 18.612 54.7473 18.612C53.7073 18.612 53.0353 19.284 53.0353 20.5V25.348H50.2993Z" fill="#204169"/>
</svg>
